<?xml version="1.0" encoding="UTF-8" standalone="no"?>
<!-- Created with Inkscape (http://www.inkscape.org/) -->
<svg xmlns:dc="http://purl.org/dc/elements/1.1/" xmlns:cc="http://creativecommons.org/ns#" xmlns:rdf="http://www.w3.org/1999/02/22-rdf-syntax-ns#" xmlns:svg="http://www.w3.org/2000/svg" xmlns="http://www.w3.org/2000/svg" xmlns:sodipodi="http://sodipodi.sourceforge.net/DTD/sodipodi-0.dtd" xmlns:inkscape="http://www.inkscape.org/namespaces/inkscape" id="svg3414" sodipodi:docname="sad-laptop.svg" inkscape:export-filename="/home/katie/Desktop/sad-laptop.png" viewBox="0 0 520.3 346.95" inkscape:export-xdpi="100" version="1.1" inkscape:export-ydpi="100" inkscape:version="0.48.5 r10040">
  <defs id="defs3416">
    <linearGradient id="linearGradient3169">
      <stop id="stop3171" style="stop-color:#d4d4d4" offset="0"/>
      <stop id="stop3173" style="stop-color:#9f9696" offset="1"/>
    </linearGradient>
  </defs>
  <sodipodi:namedview id="base" bordercolor="#666666" inkscape:pageshadow="2" inkscape:window-y="19" fit-margin-left="0" pagecolor="#ffffff" fit-margin-top="0" inkscape:window-maximized="1" inkscape:zoom="1.4142136" inkscape:window-x="0" inkscape:window-height="1181" showgrid="false" borderopacity="1.0" inkscape:current-layer="layer1" inkscape:cx="148.37887" inkscape:cy="150.43228" fit-margin-right="0" fit-margin-bottom="0" inkscape:window-width="1920" inkscape:pageopacity="0.0" inkscape:document-units="px"/>
  <g id="layer1" inkscape:label="Layer 1" inkscape:groupmode="layer" transform="translate(-36.286 -274.92)">
    <path id="rect3196" sodipodi:nodetypes="ccccccccc" style="stroke-linejoin:bevel;stroke:#000000;stroke-linecap:round;stroke-width:1.23300000000000010;fill:#c4c1c1;fill-opacity:1" inkscape:connector-curvature="0" d="m115.32 520.37-78.414 69.254 238.31-1.5598h45.974l233.59-1.8717-76.445-65.822-105.11 0.6239h-152.39z"/>
    <rect id="rect2160" style="stroke-linejoin:bevel;stroke:#000000;stroke-linecap:round;stroke-width:1.23300000000000010;fill:#c4c1c1;fill-opacity:1" rx="30.92" ry="31.34" height="244.85" width="414.52" y="275.54" x="89.768"/>
    <rect id="rect3136" style="opacity:0.72428000000000003;stroke-linejoin:bevel;stroke:#000000;stroke-linecap:round;stroke-width:1.27499999999999991;fill:#7beeff;fill-opacity:1" rx="28.001" ry="28.727" height="224.43" width="375.4" y="286.03" x="108.63"/>
    <rect x="38.092598" y="583.15747" width="517.87329" height="38.091331" ry="4.8755631" rx="38.629017" style="fill:#c4c1c1;stroke:#000000;stroke-width:1.23302054000000005;stroke-linecap:round;stroke-linejoin:bevel;fill-opacity:1" id="rect3134"/>
    <path sodipodi:cx="702.85712" sodipodi:cy="478.07648" transform="matrix(0.32564422,0,0,0.29944847,276.16914,460.07996)" d="m 717.14283,478.07648 a 14.285714,14.285714 0 1 1 -28.57143,0 14.285714,14.285714 0 1 1 28.57143,0 z" sodipodi:type="arc" style="fill:#28ea24;fill-opacity:1;stroke-width:1.63250004999999998" sodipodi:ry="14.285714" sodipodi:rx="14.285714" id="path3205"/>
    <path id="path3845" sodipodi:rx="14.285714" sodipodi:ry="14.285714" style="fill:#28ea24;fill-opacity:1;stroke-width:1.63250004999999998" sodipodi:type="arc" d="m 717.14283,478.07648 a 14.285714,14.285714 0 1 1 -28.57143,0 14.285714,14.285714 0 1 1 28.57143,0 z" transform="matrix(0.32564422,0,0,0.29944847,263.40605,460.07996)" sodipodi:cy="478.07648" sodipodi:cx="702.85712"/>
    <path sodipodi:cx="702.85712" sodipodi:cy="478.07648" transform="matrix(0.32564422,0,0,0.29944847,250.64296,460.07996)" d="m 717.14283,478.07648 a 14.285714,14.285714 0 1 1 -28.57143,0 14.285714,14.285714 0 1 1 28.57143,0 z" sodipodi:type="arc" style="fill:#0f800c;fill-opacity:1;stroke-width:1.63250004999999998" sodipodi:ry="14.285714" sodipodi:rx="14.285714" id="path3847"/>
    <path id="path3849" sodipodi:rx="14.285714" sodipodi:ry="14.285714" style="fill:#000000;fill-opacity:1;stroke-width:1.63250004999999998" sodipodi:type="arc" d="m 717.14283,478.07648 a 14.285714,14.285714 0 1 1 -28.57143,0 14.285714,14.285714 0 1 1 28.57143,0 z" transform="matrix(0.32564422,0,0,0.29944847,237.87986,460.07996)" sodipodi:cy="478.07648" sodipodi:cx="702.85712"/>
    <path sodipodi:cx="702.85712" sodipodi:cy="478.07648" transform="matrix(0.32564422,0,0,0.29944847,225.11677,460.07996)" d="m 717.14283,478.07648 a 14.285714,14.285714 0 1 1 -28.57143,0 14.285714,14.285714 0 1 1 28.57143,0 z" sodipodi:type="arc" style="fill:#000000;fill-opacity:1;stroke-width:1.63250004999999998" sodipodi:ry="14.285714" sodipodi:rx="14.285714" id="path3851"/>
    <path id="path3623" style="stroke:#000000;stroke-width:.39867;fill:#ffffff" inkscape:connector-curvature="0" d="m358.92 575.37c0 0.97997-2.1383 1.7741-4.7756 1.7741h-105.74c-2.6373 0-4.7749-0.7941-4.7749-1.7741l4.7749-10.575c0.50955-1.119 2.1383-1.7741 4.7756-1.7741h94.171c2.6373 0 3.7029 0.65487 4.7743 1.7741l6.8027 10.575z"/>
    <path id="path3657" style="stroke:#393939;stroke-width:.41326;fill:#ffffff" inkscape:connector-curvature="0" d="m164.88 528.04c0.1279 0 0.24092 0.006 0.33722 0.0167 0.0955 0.0102 0.17603 0.0248 0.23651 0.0425 0.0624 0.0172 0.10508 0.0374 0.12693 0.0588 0.0228 0.0203 0.028 0.043 0.009 0.0642l-1.7192 1.9717c-0.0202 0.0218-0.0611 0.0445-0.12173 0.0658-0.0611 0.0212-0.14098 0.041-0.23384 0.0587-0.0928 0.0177-0.2006 0.0325-0.31525 0.043-0.11653 0.0102-0.24177 0.0157-0.37137 0.0157l-20.748 0.004c-0.12876 0-0.24346-0.006-0.34159-0.0168-0.0964-0.0101-0.17603-0.0248-0.23735-0.0425-0.0605-0.0172-0.10333-0.0374-0.12433-0.0587-0.0215-0.0212-0.0215-0.0441 0-0.0658l2.0091-1.9712c0.0202-0.0212 0.0665-0.0435 0.13051-0.0648 0.0644-0.0212 0.14534-0.0416 0.24086-0.0588 0.0955-0.0172 0.20406-0.0313 0.32136-0.0425 0.11569-0.0106 0.23911-0.0168 0.36871-0.0168l20.433-0.0102z"/>
    <path id="path3867" style="stroke:#393939;stroke-width:.41326;fill:#ffffff" inkscape:connector-curvature="0" d="m187.04 528.04c0.12962 0 0.24521 0.006 0.34506 0.0167 0.0998 0.0106 0.1813 0.0254 0.24521 0.0425 0.0643 0.0172 0.11039 0.0374 0.13842 0.0588 0.0245 0.0212 0.0315 0.043 0.0167 0.0647l-1.4311 1.9717c-0.0148 0.0223-0.054 0.0446-0.11213 0.0663-0.0572 0.0212-0.13398 0.041-0.22592 0.0593-0.0902 0.0168-0.19622 0.0314-0.31182 0.0425-0.1165 0.0102-0.24084 0.0157-0.37483 0.0157l-19.495 0.003c-0.12882 0-0.24443-0.006-0.34158-0.0162-0.0981-0.0102-0.17961-0.0254-0.24177-0.0425-0.0624-0.0177-0.10593-0.0374-0.12876-0.0593-0.0228-0.0218-0.0273-0.0435-0.008-0.0653l1.7017-1.9717c0.0195-0.0218 0.0598-0.0441 0.12004-0.0653 0.0598-0.0202 0.13837-0.041 0.23117-0.0582 0.0902-0.0173 0.19618-0.0319 0.31004-0.0431 0.11478-0.0106 0.23735-0.0162 0.36526-0.0162h19.216z"/>
    <path id="path3877" style="stroke:#393939;stroke-width:.41326;fill:#ffffff" inkscape:connector-curvature="0" d="m209.01 528.04c0.13134 0 0.24694 0.006 0.34769 0.0167 0.0998 0.0102 0.18478 0.0247 0.25139 0.0425 0.0683 0.0173 0.11733 0.037 0.14626 0.0582 0.0289 0.0207 0.0386 0.0435 0.0263 0.0647l-1.1438 1.9722c-0.0142 0.0218-0.0482 0.0447-0.10338 0.0658-0.054 0.0212-0.12788 0.0416-0.21628 0.0593-0.0885 0.0173-0.19185 0.0319-0.30745 0.0425-0.11296 0.0107-0.2382 0.0162-0.37135 0.0162l-19.492 0.003c-0.13135 0-0.24875-0.006-0.35033-0.0168-0.10158-0.0101-0.18478-0.0248-0.25138-0.0425-0.0637-0.0173-0.11297-0.037-0.13836-0.0582-0.027-0.0223-0.0341-0.0441-0.0187-0.0663l1.4171-1.9717c0.0154-0.0218 0.0534-0.0435 0.11122-0.0648 0.0553-0.0212 0.13051-0.0416 0.22155-0.0588 0.0902-0.0177 0.19359-0.0325 0.30655-0.0425 0.1156-0.0106 0.2391-0.0167 0.36872-0.0167h19.198z"/>
    <path id="path3897" style="stroke:#393939;stroke-width:.41326;fill:#ffffff" inkscape:connector-curvature="0" d="m230.99 528.04c0.12701 0 0.24174 0.006 0.34333 0.0167 0.10072 0.0106 0.18743 0.0254 0.25662 0.0425 0.0683 0.0173 0.11999 0.0374 0.15151 0.0588 0.0323 0.0212 0.0464 0.0431 0.0377 0.0643l-0.85744 1.9728c-0.01 0.0223-0.0421 0.0451-0.0928 0.0664-0.0525 0.0212-0.12174 0.041-0.20582 0.0592-0.0858 0.0172-0.18743 0.0313-0.29778 0.0425-0.1121 0.0102-0.2356 0.0157-0.36434 0.0157l-19.511 0.003c-0.12878 0-0.24701-0.006-0.34776-0.0167-0.10158-0.0101-0.18915-0.0248-0.25833-0.0425-0.0692-0.0173-0.11997-0.0374-0.1498-0.0588-0.0315-0.0212-0.0418-0.0441-0.0289-0.0658l1.1306-1.9722c0.0122-0.0218 0.0488-0.0441 0.10165-0.0653 0.054-0.0207 0.12871-0.041 0.21634-0.0582 0.0876-0.0173 0.18915-0.0319 0.30211-0.0431 0.11213-0.0106 0.23473-0.0162 0.36171-0.0162l19.233-0.0152z"/>
    <path id="path3913" style="stroke:#393939;stroke-width:.41326;fill:#ffffff" inkscape:connector-curvature="0" d="m252.97 528.03c0.12787 0 0.24523 0.006 0.3477 0.0157 0.10247 0.0106 0.19268 0.0254 0.26625 0.0425 0.0718 0.0182 0.12787 0.038 0.16465 0.0593 0.0368 0.0207 0.0534 0.0435 0.0473 0.0648l-0.56928 1.9728c-0.006 0.0218-0.0351 0.0447-0.085 0.0658-0.0499 0.0212-0.11824 0.0421-0.20144 0.0593-0.085 0.0172-0.18479 0.0319-0.29515 0.043-0.11123 0.0106-0.23297 0.0162-0.36347 0.0162l-19.519 0.001c-0.12875 0-0.24698-0.006-0.34945-0.0162s-0.19006-0.0248-0.26012-0.0421c-0.0701-0.0182-0.12349-0.038-0.1559-0.0593-0.0333-0.0212-0.0464-0.0441-0.0368-0.0663l0.84341-1.9728c0.01-0.0212 0.0421-0.043 0.0911-0.0644 0.0508-0.0212 0.11999-0.0416 0.20319-0.0588 0.085-0.0177 0.18218-0.0325 0.29253-0.0425 0.11035-0.0106 0.23121-0.0167 0.35908-0.0167h19.251z"/>
    <path id="path3935" style="stroke:#393939;stroke-width:.41326;fill:#ffffff" inkscape:connector-curvature="0" d="m274.96 528.03c0.13137 0 0.24961 0.006 0.35558 0.0167 0.10598 0.0107 0.19619 0.0254 0.27238 0.0425 0.0736 0.0172 0.1305 0.0369 0.16991 0.0588 0.0393 0.0212 0.057 0.043 0.0552 0.0642l-0.28201 1.9733c-0.005 0.0218-0.0289 0.0446-0.0753 0.0658-0.0455 0.0212-0.10949 0.0421-0.19181 0.0593-0.0806 0.0173-0.17692 0.0319-0.28815 0.0425-0.10772 0.0106-0.23209 0.0167-0.36434 0.0167l-19.527 0.001c-0.12875 0-0.24611-0.006-0.35121-0.0157-0.10422-0.0106-0.19443-0.0258-0.26624-0.043-0.0736-0.0177-0.12875-0.038-0.16554-0.0593-0.0342-0.0212-0.0525-0.0441-0.0464-0.0658l0.55702-1.9728c0.007-0.0218 0.036-0.0441 0.0823-0.0653 0.0482-0.0207 0.11386-0.0416 0.19618-0.0588 0.0806-0.0172 0.17693-0.0315 0.28552-0.0425 0.1086-0.0107 0.22859-0.0168 0.35734-0.0168l19.233 0.005z"/>
    <path id="path3965" style="stroke:#393939;stroke-width:.41326;fill:#ffffff" inkscape:connector-curvature="0" d="m296.97 528.03c0.12699 0 0.24523 0.006 0.34944 0.0157 0.10598 0.0106 0.19882 0.0254 0.27502 0.0435 0.078 0.0172 0.1375 0.0369 0.17866 0.0582 0.0421 0.0207 0.0648 0.0435 0.0648 0.0648l0.005 1.9728c0 0.0223-0.0219 0.0451-0.064 0.0663s-0.10422 0.0421-0.18129 0.0593c-0.0771 0.0173-0.17167 0.0313-0.27852 0.0425-0.10685 0.0106-0.22772 0.0162-0.35734 0.0162l-19.534 0.001c-0.13312 0-0.25311-0.006-0.36171-0.0157-0.10597-0.0106-0.20056-0.0254-0.27589-0.0425-0.0762-0.0177-0.134-0.038-0.17253-0.0593-0.0412-0.0212-0.0595-0.0441-0.0578-0.0658l0.27062-1.9732c0.001-0.0212 0.0272-0.0431 0.0736-0.0643 0.0438-0.0218 0.1086-0.0416 0.18654-0.0588 0.0806-0.0177 0.17518-0.0325 0.28377-0.0425 0.10773-0.0106 0.23035-0.0167 0.35909-0.0167l19.268-0.005z"/>
    <path id="path3985" style="stroke:#393939;stroke-width:.41326;fill:#ffffff" inkscape:connector-curvature="0" d="m319 528.02c0.12786 0 0.24785 0.006 0.35383 0.0167 0.10772 0.0101 0.20231 0.0254 0.28114 0.0425 0.0806 0.0173 0.14276 0.037 0.1883 0.0587 0.0447 0.0212 0.0701 0.0431 0.0744 0.0643l0.29253 1.9738c0 0.0217-0.0166 0.0445-0.0551 0.0658-0.0385 0.0212-0.0972 0.0421-0.17254 0.0593-0.0753 0.0172-0.16728 0.0325-0.27325 0.0425-0.10511 0.0106-0.22422 0.0167-0.35472 0.0167l-19.541 0.001c-0.12962 0-0.24961-0.006-0.35821-0.0157-0.1086-0.0106-0.20495-0.0254-0.28289-0.0425-0.0797-0.0172-0.14276-0.038-0.18568-0.0593-0.0429-0.0212-0.0666-0.0441-0.0683-0.0663l-0.0185-1.9727c0-0.0223 0.0228-0.0441 0.0648-0.0648 0.0429-0.0212 0.10509-0.0421 0.18129-0.0593 0.0788-0.0172 0.17254-0.0314 0.27851-0.0425 0.10598-0.0112 0.2251-0.0168 0.35209-0.0168h19.268z"/>
    <path id="path4003" style="stroke:#393939;stroke-width:.41326;fill:#ffffff" inkscape:connector-curvature="0" d="m339.67 528.02c0.12874 0 0.24873 0.006 0.35734 0.0162 0.10772 0.0102 0.20494 0.0248 0.28551 0.043 0.0832 0.0173 0.14976 0.037 0.19619 0.0582 0.049 0.0212 0.0762 0.0435 0.0832 0.0648l0.5649 1.9743c0.009 0.0218-0.0114 0.0447-0.0464 0.0658-0.0368 0.0212-0.092 0.0416-0.16552 0.0588-0.0736 0.0177-0.16378 0.0325-0.26713 0.043-0.10423 0.0106-0.22159 0.0162-0.35295 0.0162l-18.204 0.001c-0.1305 0-0.25049-0.006-0.36171-0.0162-0.10773-0.0106-0.20232-0.0254-0.2829-0.0425-0.0815-0.0172-0.14538-0.038-0.1918-0.0593-0.0464-0.0212-0.071-0.0441-0.0762-0.0658l-0.30479-1.9738c0-0.0212 0.014-0.043 0.0534-0.0642 0.0367-0.0218 0.0946-0.0416 0.16816-0.0588 0.0736-0.0182 0.16553-0.0325 0.26975-0.0435 0.10423-0.0102 0.22158-0.0157 0.3477-0.0157l17.954 0.005z"/>
    <path id="path4019" style="stroke:#393939;stroke-width:.41326;fill:#ffffff" inkscape:connector-curvature="0" d="m362.01 528.02c0.12875 0 0.24874 0.006 0.35996 0.0162 0.11035 0.0106 0.20933 0.0258 0.29253 0.043 0.0858 0.0173 0.15415 0.038 0.20494 0.0582 0.0508 0.0212 0.0832 0.0435 0.092 0.0653l0.85567 1.9743c0.009 0.0223 0 0.0451-0.0376 0.0663-0.0324 0.0212-0.0858 0.041-0.15414 0.0582-0.0718 0.0182-0.1594 0.0325-0.26363 0.0435-0.10071 0.0102-0.21895 0.0157-0.34945 0.0157l-19.557 0.004c-0.13137 0-0.25574-0.006-0.36697-0.0168-0.11298-0.0102-0.21195-0.0254-0.29516-0.0425-0.0832-0.0173-0.15239-0.038-0.20056-0.0593-0.049-0.0212-0.0788-0.0441-0.0858-0.0663l-0.58067-1.9733c-0.009-0.0212 0.0115-0.044 0.0464-0.0648 0.0342-0.0212 0.0902-0.041 0.16116-0.0593 0.0736-0.0173 0.16202-0.0319 0.26537-0.0425 0.10422-0.0107 0.22421-0.0168 0.35208-0.0168l19.181-0.0152z"/>
    <path id="path4037" style="stroke:#393939;stroke-width:.41326;fill:#ffffff" inkscape:connector-curvature="0" d="m383.81 528.01c0.12875 0 0.25137 0.007 0.36435 0.0168 0.11298 0.0102 0.21458 0.0248 0.30391 0.0425 0.0885 0.0172 0.16202 0.0374 0.2172 0.0588 0.0534 0.0212 0.0902 0.0435 0.10072 0.0648l1.1421 1.9748c0.014 0.0218 0 0.0446-0.028 0.0658-0.0298 0.0218-0.0806 0.0416-0.14977 0.0593-0.0692 0.0173-0.15677 0.0319-0.25838 0.043-0.10334 0.0102-0.22157 0.0157-0.34945 0.0157l-19.281 0.003c-0.13136 0-0.25398-0.006-0.36696-0.0162s-0.21371-0.0258-0.30217-0.043c-0.0876-0.0173-0.15939-0.037-0.20931-0.0593-0.0534-0.0212-0.0876-0.043-0.0963-0.0658l-0.86881-1.9743c-0.01-0.0212 0.009-0.0435 0.0368-0.0648 0.0323-0.0212 0.0858-0.041 0.15677-0.0582 0.0691-0.0172 0.15677-0.0325 0.25837-0.043 0.10159-0.0107 0.21895-0.0162 0.34595-0.0162h19.005z"/>
    <path id="path4047" style="stroke:#393939;stroke-width:.41326;fill:#ffffff" inkscape:connector-curvature="0" d="m405.88 528.01c0.1305 0 0.25574 0.006 0.37135 0.0162 0.11472 0.0106 0.21895 0.0258 0.30917 0.043 0.0902 0.0172 0.16552 0.0374 0.22332 0.0582 0.0578 0.0212 0.0946 0.0435 0.11124 0.0653l1.4311 1.9753c0.0166 0.0218 0.01 0.0446-0.0183 0.0658-0.028 0.0212-0.0736 0.0416-0.141 0.0593-0.064 0.0173-0.14977 0.0319-0.25049 0.0425-0.10159 0.0102-0.21896 0.0167-0.35296 0.0167l-19.465 0.001c-0.12874 0-0.25399-0.006-0.36872-0.0167-0.11298-0.0102-0.21721-0.0248-0.30742-0.0425-0.0902-0.0173-0.16378-0.0369-0.21896-0.0588-0.057-0.0218-0.0919-0.0441-0.10597-0.0663l-1.157-1.9743c-0.0114-0.0212 0-0.0435 0.0272-0.0648 0.0306-0.0212 0.0815-0.0416 0.14801-0.0593 0.0691-0.0172 0.15502-0.0319 0.25399-0.0425 0.10071-0.0106 0.21632-0.0167 0.34594-0.0167h19.093z"/>
    <path id="path4063" style="stroke:#393939;stroke-width:.41326;fill:#ffffff" inkscape:connector-curvature="0" d="m427.25 528.01c0.12875 0 0.25136 0.006 0.36697 0.0168 0.11561 0.0101 0.22158 0.0248 0.31355 0.0425 0.0893 0.0173 0.16728 0.0374 0.22771 0.0587 0.0604 0.0212 0.10159 0.043 0.12262 0.0648l1.7105 1.9753c0.0183 0.0223 0.014 0.0446-0.01 0.0663-0.0228 0.0212-0.0666 0.0416-0.13138 0.0593-0.0612 0.0172-0.14189 0.0314-0.24085 0.0425-0.0972 0.0106-0.21195 0.0168-0.3442 0.0168l-18.755 0.001c-0.13137 0-0.25574-0.007-0.37135-0.0167-0.11561-0.0102-0.21896-0.0248-0.31092-0.0425-0.0902-0.0172-0.16553-0.0374-0.22421-0.0588-0.057-0.0223-0.0955-0.0441-0.11298-0.0658l-1.4442-1.9758c-0.0166-0.0212-0.0123-0.0435 0.0166-0.0647 0.0245-0.0212 0.071-0.041 0.13488-0.0582 0.0622-0.0172 0.14539-0.0325 0.24435-0.043 0.0972-0.0106 0.21019-0.0162 0.33894-0.0162l18.305-0.005z"/>
    <path id="path4081" style="stroke:#393939;stroke-width:.41326;fill:#ffffff" inkscape:connector-curvature="0" d="m449.85 528.01c0.12876 0 0.254 0.006 0.37136 0.0162 0.11561 0.0106 0.2242 0.0254 0.31792 0.0425 0.0946 0.0177 0.17779 0.038 0.23998 0.0588 0.0612 0.0212 0.10773 0.0441 0.12787 0.0653l2.0083 1.9758c0.0228 0.0218 0.0228 0.0445 0 0.0658-0.021 0.0212-0.0622 0.0421-0.1226 0.0593s-0.14014 0.0319-0.23737 0.0425c-0.0963 0.0107-0.20931 0.0167-0.34157 0.0167l-19.854 0.001c-0.12962 0-0.25661-0.006-0.37134-0.0157-0.11825-0.0106-0.22421-0.0254-0.31792-0.0425-0.092-0.0182-0.17255-0.038-0.23297-0.0593-0.0622-0.0218-0.10424-0.044-0.1235-0.0663l-1.7289-1.9753c-0.0183-0.0218-0.0166-0.0435 0.009-0.0648 0.0236-0.0212 0.0674-0.0416 0.12874-0.0593 0.0596-0.0173 0.14013-0.0319 0.23736-0.0425 0.0963-0.0106 0.20932-0.0167 0.33631-0.0167h19.618z"/>
    <path id="path4307" style="stroke:#393939;stroke-width:.41326;fill:#ffffff" inkscape:connector-curvature="0" d="m159.15 530.86c0.1322 0 0.24873 0.006 0.34764 0.0167 0.099 0.0102 0.1822 0.0248 0.24443 0.0425 0.0611 0.0173 0.10593 0.038 0.12876 0.0593 0.0221 0.0223 0.0247 0.0446 0.007 0.0669l-3.8264 4.2832c-0.0215 0.0233-0.0657 0.0476-0.12966 0.0708-0.0631 0.0228-0.148 0.0441-0.24431 0.0628-0.0964 0.0182-0.20938 0.0344-0.33196 0.046-0.12088 0.0111-0.25315 0.0172-0.38886 0.0172l-18.087 0.0006c-0.13311 0-0.25133-0.006-0.35205-0.0172-0.099-0.0112-0.18214-0.0273-0.24437-0.046-0.0624-0.0183-0.10509-0.0395-0.12609-0.0623-0.0221-0.0233-0.0202-0.0471 0-0.0708l4.3634-4.2827c0.0228-0.0223 0.0691-0.0446 0.13487-0.0664 0.0657-0.0218 0.14891-0.0416 0.24522-0.0597 0.0964-0.0172 0.20672-0.0325 0.32585-0.0425 0.11906-0.0106 0.24521-0.0168 0.37657-0.0168h17.552z"/>
    <path id="path4323" style="stroke:#393939;stroke-width:.41326;fill:#ffffff" inkscape:connector-curvature="0" d="m181.56 530.86c0.12878 0 0.24521 0.006 0.34596 0.0162 0.099 0.0106 0.18214 0.0258 0.24611 0.043 0.0648 0.0177 0.11123 0.0374 0.13753 0.0597 0.0263 0.0212 0.0309 0.0441 0.0148 0.0658l-3.2037 4.2848c-0.0169 0.0237-0.0572 0.0476-0.11822 0.0703-0.0611 0.0228-0.1402 0.0447-0.23474 0.0633-0.0946 0.0187-0.20315 0.0344-0.32319 0.0456-0.11737 0.0111-0.24612 0.0177-0.38014 0.0177l-19.42 0.001c-0.13402 0-0.25224-0.007-0.35296-0.0172-0.0999-0.0111-0.18305-0.0278-0.24704-0.046-0.0631-0.0187-0.10859-0.0399-0.13135-0.0633-0.0228-0.0228-0.0254-0.0471-0.007-0.0704l3.7766-4.2832c0.0195-0.0223 0.0624-0.0456 0.12348-0.0669 0.0611-0.0212 0.14013-0.0421 0.23559-0.0593 0.0919-0.0177 0.20061-0.0325 0.31525-0.043 0.11829-0.0106 0.24177-0.0167 0.37228-0.0167l18.856-0.005z"/>
    <path id="path4341" style="stroke:#393939;stroke-width:.41326;fill:#ffffff" inkscape:connector-curvature="0" d="m203.48 530.86c0.12872 0 0.24695 0.007 0.3468 0.0167 0.0998 0.0107 0.18568 0.0254 0.25312 0.0435 0.0683 0.0172 0.1165 0.0374 0.14626 0.0593 0.0289 0.0212 0.0379 0.0446 0.0245 0.0664l-2.5924 4.2848c-0.0148 0.0238-0.0534 0.0476-0.11039 0.0708-0.0579 0.0228-0.13398 0.044-0.22592 0.0633-0.0911 0.0187-0.19886 0.0338-0.31446 0.0456-0.11823 0.0111-0.24521 0.0173-0.38009 0.0173l-19.416 0.001c-0.13836 0.00051-0.25833-0.006-0.36261-0.0172-0.10332-0.0106-0.19088-0.0268-0.25749-0.0456-0.0674-0.0187-0.11562-0.0405-0.14098-0.0633-0.0273-0.0228-0.0319-0.0466-0.0169-0.0703l3.167-4.2848c0.0167-0.0218 0.0553-0.0447 0.1156-0.0663 0.0579-0.0218 0.13489-0.0421 0.22592-0.0593 0.092-0.0182 0.19886-0.0325 0.31446-0.0435 0.1165-0.0101 0.24347-0.0157 0.37482-0.0157h18.83z"/>
    <path id="path4363" style="stroke:#393939;stroke-width:.41326;fill:#ffffff" inkscape:connector-curvature="0" d="m225.42 530.86c0.1305 0 0.24873 0.006 0.35033 0.0167 0.10159 0.0102 0.19005 0.0248 0.26012 0.0425 0.0692 0.0172 0.12262 0.038 0.15502 0.0593 0.0315 0.0223 0.0438 0.0447 0.0333 0.0668l-1.982 4.2863c-0.0114 0.0233-0.0464 0.0471-0.0999 0.0699-0.0542 0.0233-0.12787 0.0446-0.21632 0.0633-0.0893 0.0187-0.19268 0.0344-0.31004 0.046-0.11649 0.0107-0.24261 0.0173-0.37661 0.0173l-19.427 0.001c-0.13578 0-0.25839-0.007-0.36434-0.0173-0.10338-0.0111-0.19359-0.0273-0.26276-0.046-0.0693-0.0187-0.11998-0.0399-0.15065-0.0628-0.0296-0.0233-0.0386-0.0471-0.0245-0.0708l2.5565-4.2848c0.0135-0.0228 0.0488-0.0451 0.10422-0.0663 0.054-0.0223 0.12961-0.0421 0.21898-0.0603 0.0902-0.0173 0.19352-0.0325 0.30912-0.0425 0.11386-0.0106 0.2391-0.0167 0.37225-0.0167l18.839-0.005z"/>
    <path id="path4389" style="stroke:#393939;stroke-width:.41326;fill:#ffffff" inkscape:connector-curvature="0" d="m247.37 530.85c0.12962 0 0.24874 0.006 0.35209 0.0167 0.1051 0.0106 0.19356 0.0254 0.26625 0.0425 0.0718 0.0177 0.12699 0.038 0.16466 0.0597 0.0342 0.0212 0.0508 0.0441 0.0438 0.0668l-1.3715 4.2868c-0.007 0.0233-0.0393 0.0476-0.0902 0.0704-0.0508 0.0223-0.12086 0.0446-0.20756 0.0633-0.0867 0.0182-0.18919 0.0344-0.30216 0.0451-0.11473 0.0111-0.24174 0.0182-0.37573 0.0182l-19.433 0.0006c-0.13312 0-0.25573-0.007-0.36171-0.0173-0.10597-0.0111-0.19793-0.0273-0.27238-0.046-0.071-0.0187-0.127-0.0405-0.16116-0.0633-0.035-0.0228-0.0481-0.0466-0.0368-0.0699l1.9452-4.2863c0.0123-0.0223 0.0438-0.0447 0.0963-0.0669 0.0534-0.0212 0.12612-0.0421 0.21371-0.0593 0.0867-0.0177 0.18917-0.0325 0.30216-0.043 0.11298-0.0106 0.23646-0.0167 0.36784-0.0167l18.856-0.005z"/>
    <path id="path4411" style="stroke:#393939;stroke-width:.41326;fill:#ffffff" inkscape:connector-curvature="0" d="m269.33 530.85c0.13139 0 0.254 0.006 0.35997 0.0162 0.10773 0.0106 0.20057 0.0254 0.27501 0.0435 0.0744 0.0173 0.13401 0.038 0.17254 0.0593 0.0376 0.0212 0.056 0.0446 0.0542 0.0668l-0.75934 4.2873c-0.003 0.0233-0.0307 0.0476-0.0797 0.0708-0.049 0.0228-0.11561 0.044-0.20056 0.0628-0.0832 0.0193-0.1848 0.0344-0.29866 0.0456-0.11473 0.0111-0.24085 0.0177-0.37923 0.0177l-19.441 0.00059c-0.13313 0.00059-0.25574-0.006-0.36346-0.0172-0.10599-0.0112-0.19882-0.0269-0.27414-0.0451-0.0736-0.0197-0.13138-0.041-0.16729-0.0633-0.0351-0.0228-0.0517-0.0471-0.0447-0.0708l1.3339-4.2868c0.008-0.0223 0.0376-0.0451 0.0858-0.0663 0.049-0.0218 0.11823-0.0425 0.20056-0.0597 0.0832-0.0182 0.18217-0.0325 0.29253-0.0435 0.11035-0.0102 0.23297-0.0157 0.36434-0.0157h18.874z"/>
    <path id="path4435" style="stroke:#393939;stroke-width:.41326;fill:#ffffff" inkscape:connector-curvature="0" d="m291.29 530.85c0.13225 0 0.254 0.006 0.3626 0.0157 0.1086 0.0107 0.20406 0.0254 0.28114 0.0431 0.0788 0.0173 0.14013 0.038 0.18217 0.0593 0.0412 0.0223 0.0631 0.0451 0.0622 0.0668l-0.14538 4.2888c-0.003 0.0233-0.0254 0.0476-0.0701 0.0704-0.0455 0.0228-0.10948 0.0446-0.19093 0.0633-0.0832 0.0187-0.18217 0.0344-0.2934 0.046-0.1121 0.0106-0.23822 0.0173-0.3766 0.0173l-19.449 0.001c-0.13487 0-0.25748-0.007-0.36521-0.0177-0.10948-0.0106-0.20406-0.0273-0.28114-0.0456-0.0771-0.0187-0.13663-0.0399-0.1778-0.0633-0.0385-0.0228-0.057-0.0471-0.0542-0.0703l0.72255-4.2873c0.003-0.0228 0.0298-0.0456 0.0762-0.0669 0.0464-0.0212 0.11035-0.0421 0.19179-0.0603 0.0815-0.0173 0.1778-0.0315 0.28816-0.0425 0.10772-0.0106 0.23034-0.0162 0.35908-0.0162l18.892 0.005z"/>
    <path id="path4453" style="stroke:#393939;stroke-width:.41326;fill:#ffffff" inkscape:connector-curvature="0" d="m313.31 530.85c0.12961 0 0.25137 0.006 0.35996 0.0167 0.10773 0.0102 0.20407 0.0254 0.28552 0.0425 0.078 0.0177 0.14276 0.038 0.18743 0.0597 0.0455 0.0212 0.071 0.0441 0.0727 0.0669l0.46595 4.2888c0 0.0233-0.0183 0.0476-0.0587 0.0708-0.0403 0.0228-0.10248 0.0445-0.18042 0.0633-0.0788 0.0188-0.17429 0.0344-0.28378 0.0456-0.10946 0.0112-0.23295 0.0177-0.36783 0.0177l-19.468 0.001c-0.13312 0-0.25837-0.007-0.36872-0.0181-0.10948-0.0106-0.20582-0.0264-0.28552-0.0451-0.0815-0.0187-0.14276-0.0405-0.18742-0.0633-0.0438-0.0228-0.0648-0.0471-0.064-0.0703l0.10948-4.2888c0.00064-0.0218 0.0236-0.0446 0.0666-0.0669 0.0429-0.0212 0.10509-0.0421 0.18304-0.0592 0.0788-0.0177 0.17254-0.0325 0.28114-0.0431s0.22859-0.0167 0.35996-0.0167l18.935 0.0102z"/>
    <path id="path4469" style="stroke:#393939;stroke-width:.41326;fill:#ffffff" inkscape:connector-curvature="0" d="m335.29 530.84c0.12875 0 0.25048 0.006 0.36172 0.0162 0.11035 0.0106 0.20669 0.0258 0.29077 0.0435 0.0823 0.0172 0.14889 0.038 0.19794 0.0593 0.0464 0.0218 0.0762 0.0447 0.0814 0.0669l1.0782 4.2903c0.009 0.0233-0.01 0.0471-0.049 0.0699-0.0368 0.0232-0.0963 0.0446-0.16992 0.0633-0.0762 0.0187-0.1699 0.0344-0.27851 0.046-0.10597 0.0111-0.23121 0.0172-0.36434 0.0172l-19.474 0.001c-0.13487 0-0.26099-0.006-0.3731-0.0173-0.11122-0.0111-0.21019-0.0268-0.29339-0.0456-0.0832-0.0192-0.1489-0.0405-0.19619-0.0633-0.0464-0.0233-0.0718-0.0476-0.0736-0.0708l-0.50359-4.2888c0-0.0228 0.0175-0.0456 0.057-0.0669 0.0403-0.0218 0.099-0.0421 0.17517-0.0597 0.0762-0.0177 0.16903-0.0325 0.27501-0.0435 0.10598-0.0101 0.22597-0.0157 0.35559-0.0157h18.918z"/>
    <path id="path4485" style="stroke:#393939;stroke-width:.41326;fill:#ffffff" inkscape:connector-curvature="0" d="m357.28 530.84c0.12874 0 0.25399 0.006 0.36434 0.0157 0.11123 0.0106 0.21195 0.0254 0.29779 0.0435 0.0858 0.0173 0.15414 0.0374 0.20494 0.0597 0.0508 0.0212 0.0832 0.0441 0.092 0.0669l1.6938 4.2898c0.01 0.0242-0.009 0.0487-0.0412 0.0708-0.0342 0.0228-0.0876 0.0451-0.16202 0.0633-0.0736 0.0187-0.16377 0.0344-0.27238 0.046-0.10597 0.0107-0.22858 0.0172-0.36171 0.0172l-19.471 0.001c-0.13838 0-0.26537-0.007-0.38098-0.0172-0.11562-0.0112-0.21633-0.0273-0.30479-0.046-0.085-0.0187-0.15503-0.0405-0.20495-0.0633-0.0482-0.0228-0.078-0.0466-0.0849-0.0699l-1.1158-4.2903c0-0.0223 0.0115-0.0455 0.049-0.0668 0.0368-0.0223 0.092-0.0421 0.16729-0.0597 0.0744-0.0172 0.16466-0.0325 0.27062-0.043 0.10599-0.0106 0.22772-0.0162 0.3591-0.0162l18.83-0.005z"/>
    <path id="path4499" style="stroke:#393939;stroke-width:.41326;fill:#ffffff" inkscape:connector-curvature="0" d="m379.26 530.84c0.12875 0 0.25311 0.006 0.36872 0.0167 0.11299 0.0106 0.21633 0.0254 0.30654 0.0425 0.0911 0.0181 0.16465 0.0386 0.21895 0.0597 0.0534 0.0218 0.0911 0.0441 0.10161 0.0668l2.3078 4.2918c0.014 0.0233 0 0.0476-0.0298 0.0708-0.0323 0.0223-0.0858 0.0441-0.15765 0.0633-0.071 0.0182-0.16378 0.0334-0.26976 0.0451s-0.22596 0.0182-0.36171 0.0182l-19.478 0.00059c-0.13662 0-0.26362-0.007-0.38098-0.0177-0.11561-0.0106-0.22159-0.0269-0.30917-0.0456-0.0911-0.0182-0.16465-0.0405-0.2172-0.0633-0.0542-0.0223-0.0876-0.0466-0.099-0.0708l-1.7289-4.2908c-0.01-0.0218 0-0.0447 0.0394-0.0664 0.0342-0.0218 0.0902-0.0421 0.16203-0.0593 0.0736-0.0182 0.16378-0.0325 0.26712-0.0435 0.10423-0.0106 0.22422-0.0167 0.35209-0.0167l19.005-0.005z"/>
    <path id="path4515" style="stroke:#393939;stroke-width:.41326;fill:#ffffff" inkscape:connector-curvature="0" d="m401.24 530.84c0.13137 0 0.25837 0.006 0.37573 0.0167 0.11561 0.0106 0.22158 0.0254 0.31091 0.043 0.092 0.0173 0.16816 0.038 0.22334 0.0593 0.0578 0.0223 0.0972 0.0446 0.11123 0.0668l2.9226 4.2928c0.0166 0.0233 0.01 0.0476-0.0183 0.0704-0.028 0.0223-0.0788 0.0446-0.14538 0.0633-0.0692 0.0182-0.15677 0.0344-0.261 0.046-0.10509 0.0111-0.22859 0.0173-0.36347 0.0173l-19.491 0.00059c-0.134 0-0.26099-0.006-0.37835-0.0172-0.11824-0.0111-0.22422-0.0273-0.31356-0.0461-0.0919-0.0182-0.16552-0.0399-0.22333-0.0633-0.0551-0.0223-0.092-0.0466-0.10421-0.0699l-2.3472-4.2918c-0.0114-0.0228 0-0.0451 0.0307-0.0669 0.0289-0.0218 0.0806-0.0425 0.14976-0.0597 0.0692-0.0177 0.15415-0.0325 0.25574-0.043 0.10072-0.0107 0.21896-0.0162 0.35034-0.0162h19.005z"/>
    <path id="path4529" style="stroke:#393939;stroke-width:.41326;fill:#ffffff" inkscape:connector-curvature="0" d="m423.23 530.83c0.13313 0 0.261 0.006 0.37836 0.0157 0.11736 0.0106 0.22597 0.0254 0.32055 0.0435 0.092 0.0173 0.17253 0.038 0.23297 0.0597 0.0595 0.0212 0.10072 0.0441 0.11999 0.0669l3.5383 4.2929c0.0183 0.0232 0.0166 0.0476-0.01 0.0708-0.0245 0.0228-0.071 0.0447-0.13752 0.0633-0.0648 0.0187-0.14977 0.0344-0.25398 0.0456-0.10335 0.0106-0.22334 0.0177-0.36172 0.0177l-19.498 0.001c-0.13313 0-0.26275-0.007-0.38273-0.0173-0.11824-0.0111-0.22597-0.0278-0.32056-0.046-0.092-0.0187-0.16991-0.041-0.23034-0.0633-0.0604-0.0228-0.099-0.0471-0.1156-0.0703l-2.9603-4.2929c-0.0166-0.0223-0.01-0.0455 0.0183-0.0669 0.0272-0.0212 0.0753-0.0421 0.14276-0.0597 0.064-0.0173 0.14977-0.0325 0.24874-0.0425 0.10072-0.0106 0.21632-0.0167 0.34771-0.0167l19.005-0.0102z"/>
    <path id="path4545" style="stroke:#393939;stroke-width:.41326;fill:#ffffff" inkscape:connector-curvature="0" d="m452.74 530.83c0.1305 0 0.25749 0.006 0.37573 0.0168 0.11823 0.0102 0.22858 0.0254 0.32493 0.0425 0.0963 0.0177 0.17954 0.038 0.24173 0.0597 0.064 0.0212 0.11034 0.0441 0.13399 0.0669l4.3634 4.2939c0.0219 0.0233 0.0219 0.0476 0 0.0708-0.0183 0.0228-0.0622 0.0441-0.12261 0.0633-0.0622 0.0187-0.1445 0.0344-0.24348 0.0456-0.099 0.0111-0.2172 0.0177-0.35295 0.0177l-27.108 0.001c-0.13664 0-0.268-0.007-0.38975-0.0177-0.12173-0.0106-0.23297-0.0268-0.32931-0.0456-0.0963-0.0192-0.18042-0.0405-0.24172-0.0633-0.0648-0.0233-0.10597-0.0476-0.127-0.0708l-3.576-4.2934c-0.0185-0.0218-0.0166-0.0446 0.01-0.0663 0.0228-0.0212 0.0692-0.0421 0.13313-0.0593 0.0648-0.0181 0.14801-0.0325 0.24698-0.0435 0.10073-0.0107 0.21895-0.0168 0.34946-0.0168l26.187 0.0152z"/>
    <path id="path4783" style="stroke:#393939;stroke-width:.41326;fill:#ffffff" inkscape:connector-curvature="0" d="m165.13 536.13c0.13395 0 0.25223 0.007 0.35296 0.0177 0.10157 0.0111 0.18565 0.0284 0.25048 0.0476 0.0644 0.0193 0.10951 0.0421 0.13487 0.0653 0.0221 0.0233 0.0273 0.0482 0.007 0.0724l-3.7853 4.582c-0.0202 0.0254-0.0666 0.0512-0.13142 0.0755-0.065 0.0254-0.15067 0.0491-0.25049 0.0694-0.10066 0.0207-0.21452 0.039-0.34067 0.0512-0.12433 0.0122-0.25926 0.0197-0.39764 0.0197h-29.781c-0.13838 0-0.26102-0.007-0.36168-0.0193-0.10424-0.0116-0.18747-0.0303-0.2514-0.0506-0.0624-0.0207-0.10592-0.0441-0.12615-0.0694-0.0202-0.0248-0.0195-0.0512 0.007-0.076l4.669-4.5805c0.0228-0.0242 0.0727-0.0492 0.14097-0.0724 0.0692-0.0233 0.15685-0.046 0.25842-0.0653 0.10073-0.0193 0.21634-0.0359 0.34068-0.0476 0.12257-0.0111 0.25399-0.0187 0.3897-0.0187h28.858z"/>
    <path id="path4803" style="stroke:#393939;stroke-width:.41326;fill:#ffffff" inkscape:connector-curvature="0" d="m188.18 536.12c0.13579 0 0.25576 0.008 0.35824 0.0188 0.10241 0.0107 0.18915 0.0278 0.25659 0.0471 0.0674 0.0193 0.11559 0.0421 0.14272 0.0653 0.0283 0.0233 0.0354 0.0482 0.0187 0.0724l-3.1206 4.5825c-0.0187 0.0254-0.0598 0.0517-0.12261 0.0765-0.0624 0.0247-0.14279 0.0491-0.2391 0.0694-0.0981 0.0207-0.21017 0.038-0.33458 0.0512-0.1226 0.0116-0.25575 0.0193-0.39411 0.0193h-20.109c-0.13831 0-0.26187-0.007-0.36688-0.0193-0.1034-0.0117-0.18923-0.0303-0.25575-0.0512-0.0666-0.0203-0.11302-0.0441-0.13838-0.0694-0.0228-0.0248-0.0273-0.0506-0.007-0.0755l3.7372-4.582c0.0182-0.0242 0.0624-0.0491 0.12524-0.0724 0.0631-0.0233 0.14442-0.046 0.24164-0.0653 0.0964-0.0193 0.20672-0.0359 0.32669-0.0476 0.12004-0.0117 0.25055-0.0187 0.38451-0.0187h19.496z"/>
    <path id="path4817" style="stroke:#393939;stroke-width:.41326;fill:#ffffff" inkscape:connector-curvature="0" d="m210.86 536.12c0.13405 0 0.25575 0.007 0.35914 0.0188 0.10595 0.0111 0.19352 0.0278 0.26533 0.0471 0.0692 0.0197 0.12267 0.0416 0.15244 0.0658 0.0309 0.0233 0.0412 0.0482 0.0289 0.0719l-2.469 4.5835c-0.0129 0.0253-0.0527 0.0517-0.10943 0.0765-0.0585 0.0248-0.13842 0.0486-0.233 0.0694-0.0928 0.0207-0.20232 0.038-0.32493 0.0506-0.11997 0.0122-0.25395 0.0197-0.39147 0.0197l-20.106 0.00051c-0.14183 0-0.26797-0.008-0.37572-0.0202-0.10596-0.0117-0.19616-0.0294-0.26714-0.0501-0.0701-0.0202-0.11997-0.0447-0.148-0.0694-0.0283-0.0254-0.0347-0.0517-0.018-0.0765l3.0837-4.5825c0.0167-0.0242 0.0559-0.0492 0.11649-0.0724 0.0598-0.0237 0.13842-0.046 0.233-0.0653 0.0946-0.0193 0.20233-0.0359 0.3223-0.0471 0.1217-0.0122 0.25139-0.0187 0.38974-0.0187h19.505z"/>
    <path id="path4837" style="stroke:#393939;stroke-width:.41326;fill:#ffffff" inkscape:connector-curvature="0" d="m233.56 536.12c0.13575 0 0.25749 0.007 0.36434 0.0182 0.10598 0.0116 0.19618 0.0278 0.26976 0.0482 0.0744 0.0193 0.12786 0.041 0.1629 0.0653 0.0342 0.0233 0.0482 0.0482 0.0385 0.0713l-1.8138 4.5855c-0.0105 0.0254-0.0455 0.0517-0.099 0.076-0.0552 0.0254-0.13138 0.0486-0.22159 0.0694-0.0919 0.0202-0.20056 0.0386-0.3188 0.0506-0.11911 0.0127-0.25048 0.0202-0.38974 0.0202h-20.115c-0.14183 0-0.26887-0.008-0.37746-0.0197-0.10949-0.0122-0.20143-0.0298-0.27324-0.0506-0.0745-0.0207-0.12788-0.0445-0.15938-0.0694-0.0321-0.0254-0.0418-0.0517-0.0289-0.0765l2.4296-4.584c0.0122-0.0234 0.0501-0.0482 0.10421-0.0714 0.0579-0.0242 0.13399-0.0461 0.22509-0.0658s0.1988-0.0355 0.31703-0.0482c0.1174-0.0106 0.24874-0.0177 0.38453-0.0177l19.487-0.0102z"/>
    <path id="path4855" style="stroke:#393939;stroke-width:.41326;fill:#ffffff" inkscape:connector-curvature="0" d="m256.26 536.12c0.13575 0 0.25749 0.007 0.36609 0.0177 0.1086 0.0116 0.20056 0.0284 0.27676 0.0476 0.0762 0.0197 0.13313 0.0421 0.17254 0.0653 0.0368 0.0237 0.0542 0.0487 0.0482 0.0719l-1.1736 4.5876c-0.006 0.0254-0.0377 0.0512-0.0885 0.0755-0.0517 0.0254-0.12437 0.0496-0.21195 0.0704-0.0885 0.0202-0.19443 0.038-0.31092 0.0506-0.11823 0.0117-0.24785 0.0193-0.38711 0.0193h-20.123c-0.14014 0-0.26625-0.007-0.37661-0.0193-0.11122-0.0116-0.20581-0.0303-0.28201-0.0506-0.0762-0.0207-0.13487-0.0441-0.17079-0.0694-0.0368-0.0248-0.0508-0.0512-0.0412-0.076l1.7744-4.5855c0.01-0.0233 0.0438-0.0482 0.0963-0.0724 0.0542-0.0233 0.12875-0.0451 0.21808-0.0653 0.0893-0.0192 0.19532-0.035 0.31092-0.0471 0.11648-0.0111 0.24348-0.0182 0.37923-0.0182h19.505z"/>
    <path id="path4879" style="stroke:#393939;stroke-width:.41326;fill:#ffffff" inkscape:connector-curvature="0" d="m278.97 536.12c0.13837 0 0.26274 0.007 0.37572 0.0177 0.11124 0.0122 0.20757 0.0284 0.28553 0.0476 0.0814 0.0193 0.14187 0.0421 0.18216 0.0653 0.0421 0.0233 0.0621 0.0482 0.0595 0.0724l-0.50447 4.5865c-0.003 0.0254-0.0298 0.0517-0.0788 0.0765-0.0482 0.0248-0.11736 0.0492-0.20232 0.0694-0.0867 0.0207-0.19005 0.038-0.30829 0.0512-0.11736 0.0116-0.24874 0.0193-0.38974 0.0193l-20.132 0.0005c-0.13926 0-0.26625-0.008-0.37836-0.0197-0.11035-0.0116-0.2067-0.0298-0.28551-0.0501-0.078-0.0207-0.13839-0.0451-0.17692-0.0704-0.0394-0.0247-0.0561-0.0506-0.0517-0.0754l1.1228-4.5866c0.005-0.0237 0.0342-0.0486 0.0841-0.0719s0.11911-0.046 0.20406-0.0653c0.085-0.0193 0.18655-0.0355 0.30216-0.0476 0.11298-0.0111 0.23911-0.0177 0.37311-0.0177h19.513z"/>
    <path id="path4911" style="stroke:#393939;stroke-width:.41326;fill:#ffffff" inkscape:connector-curvature="0" d="m301.66 536.12c0.13838 0 0.26537 0.008 0.37836 0.0187 0.11298 0.0111 0.21194 0.0278 0.29339 0.0471 0.0823 0.0193 0.14715 0.0421 0.19181 0.0653 0.0455 0.0237 0.0692 0.0482 0.0701 0.0724l0.15064 4.5881c0 0.0248-0.0228 0.0512-0.0674 0.076-0.0464 0.0248-0.11035 0.0486-0.19356 0.0694-0.0832 0.0207-0.18479 0.0386-0.30128 0.0506-0.11561 0.0127-0.24523 0.0202-0.38712 0.0202h-20.14c-0.13926 0-0.26625-0.008-0.38011-0.0193-0.11473-0.0126-0.2137-0.0303-0.29427-0.0512-0.0806-0.0202-0.14364-0.0445-0.18656-0.0694-0.0429-0.0254-0.0648-0.0517-0.0622-0.0764l0.46769-4.5865c0.003-0.0242 0.0272-0.0491 0.0736-0.0724s0.11298-0.046 0.19618-0.0653 0.18217-0.0359 0.29428-0.0476c0.1121-0.0117 0.23734-0.0182 0.37222-0.0182h19.496z"/>
    <path id="path4931" style="stroke:#393939;stroke-width:.41326;fill:#ffffff" inkscape:connector-curvature="0" d="m324.43 536.11c0.13401 0 0.261 0.007 0.37398 0.0187 0.11298 0.0112 0.21195 0.0284 0.29777 0.0476 0.0832 0.0193 0.15239 0.0421 0.20057 0.0653 0.0464 0.0233 0.0762 0.0482 0.0788 0.0719l0.80663 4.5886c0 0.0254-0.0166 0.0517-0.057 0.0755-0.0394 0.0258-0.10161 0.0492-0.18218 0.0703-0.0788 0.0207-0.17779 0.038-0.28815 0.0506-0.11298 0.0122-0.2391 0.0197-0.38098 0.0197h-20.16c-0.13925 0-0.26888-0.007-0.38361-0.0197-0.11561-0.0117-0.21632-0.0298-0.3004-0.0506-0.085-0.0207-0.15152-0.0447-0.19795-0.0694-0.0464-0.0254-0.0718-0.0517-0.0718-0.076l-0.18918-4.5881c-0.00064-0.0242 0.0202-0.0487 0.0648-0.0724 0.0421-0.0233 0.10596-0.046 0.18567-0.0653 0.0797-0.0193 0.17604-0.0355 0.28639-0.0471 0.11036-0.0122 0.2356-0.0187 0.37135-0.0187h19.531z"/>
    <path id="path4943" style="stroke:#393939;stroke-width:.41326;fill:#ffffff" inkscape:connector-curvature="0" d="m347.2 536.11c0.13312 0 0.26098 0.007 0.37572 0.0182 0.11561 0.0111 0.21721 0.0284 0.30478 0.0476 0.0876 0.0193 0.1594 0.0421 0.20933 0.0653 0.0499 0.0233 0.0832 0.0482 0.0902 0.0724l1.4618 4.5891c0.01 0.0254-0.009 0.0512-0.0438 0.076-0.0393 0.0248-0.0963 0.0492-0.17254 0.0699-0.0762 0.0203-0.17253 0.0374-0.28377 0.0506-0.11035 0.0117-0.23734 0.0193-0.37572 0.0193l-20.16 0.00059c-0.14013 0-0.27239-0.008-0.3915-0.0203-0.11736-0.0116-0.22158-0.0294-0.31091-0.0501-0.0876-0.0212-0.15677-0.0446-0.20669-0.0703-0.049-0.0242-0.0788-0.0506-0.0832-0.0755l-0.8443-4.5886c0-0.0237 0.0149-0.0487 0.0535-0.0719 0.0394-0.0233 0.099-0.046 0.17779-0.0653 0.078-0.0193 0.17253-0.0359 0.28289-0.0476 0.11123-0.0116 0.2356-0.0187 0.37397-0.0187h19.531z"/>
    <path id="path4957" style="stroke:#393939;stroke-width:.41326;fill:#ffffff" inkscape:connector-curvature="0" d="m369.89 536.11c0.134 0 0.26275 0.007 0.37836 0.0177 0.11824 0.0122 0.22421 0.0289 0.31354 0.0482 0.0893 0.0193 0.16378 0.0416 0.21895 0.0653 0.0535 0.0238 0.0902 0.0482 0.099 0.0724l2.1178 4.5896c0.0123 0.0254 0 0.0517-0.0315 0.0765-0.0351 0.0248-0.0902 0.0492-0.16377 0.0694-0.0744 0.0207-0.16553 0.0386-0.27676 0.0512-0.10773 0.0122-0.23297 0.0197-0.3731 0.0197h-20.166c-0.14101 0-0.27414-0.008-0.39412-0.0192-0.12261-0.0127-0.22859-0.0303-0.32055-0.0506-0.0902-0.0207-0.16378-0.0451-0.21633-0.0703-0.0552-0.0247-0.0885-0.0506-0.0946-0.0755l-1.49-4.58c-0.01-0.0242 0.009-0.0492 0.0438-0.0724 0.0351-0.0242 0.092-0.046 0.16816-0.0653 0.0736-0.0197 0.16728-0.0359 0.27588-0.0482 0.10861-0.0112 0.23385-0.0177 0.37135-0.0177l19.531 0.005z"/>
    <path id="path4971" style="stroke:#393939;stroke-width:.41326;fill:#ffffff" inkscape:connector-curvature="0" d="m392.66 536.11c0.13576 0 0.26538 0.007 0.3845 0.0182 0.11823 0.0116 0.22858 0.0278 0.32054 0.0471 0.0946 0.0203 0.17255 0.0421 0.23298 0.0653 0.0578 0.0242 0.0963 0.0492 0.11298 0.0724l2.7755 4.5916c0.0166 0.0247 0.009 0.0517-0.0245 0.076-0.0298 0.0254-0.0832 0.0486-0.15677 0.0699-0.0718 0.0207-0.16464 0.038-0.27238 0.0511-0.10859 0.0117-0.23384 0.0192-0.37134 0.0192h-20.175c-0.14101 0-0.27239-0.007-0.39412-0.0192-0.12174-0.0122-0.23298-0.0303-0.32669-0.0511-0.0946-0.0202-0.17342-0.0447-0.23121-0.0694-0.0578-0.0254-0.0946-0.0517-0.10598-0.0765l-2.158-4.5906c-0.0115-0.0233 0-0.0476 0.0351-0.0719 0.0342-0.0233 0.0876-0.0456 0.16115-0.0653 0.0736-0.0193 0.16553-0.035 0.27238-0.0476 0.10597-0.0112 0.22859-0.0177 0.36434-0.0177h19.618z"/>
    <path id="path4985" style="stroke:#393939;stroke-width:.41326;fill:#ffffff" inkscape:connector-curvature="0" d="m415.43 536.11c0.13837 0 0.27061 0.007 0.39148 0.0182 0.12262 0.0111 0.23297 0.0278 0.33018 0.0476 0.0937 0.0193 0.17692 0.0416 0.23735 0.0653 0.0613 0.0238 0.10335 0.0486 0.12174 0.0719l3.435 4.5926c0.0183 0.0254 0.014 0.0517-0.014 0.0755-0.0255 0.0258-0.0736 0.0496-0.14277 0.0703-0.0692 0.0207-0.15677 0.038-0.26537 0.0506-0.10597 0.0122-0.23296 0.0193-0.37572 0.0193l-20.182 0.00059c-0.141 0-0.27238-0.008-0.39411-0.0203-0.12524-0.0117-0.23561-0.0298-0.33194-0.0506-0.0937-0.0207-0.17517-0.0441-0.23735-0.0694-0.0596-0.0248-0.099-0.0517-0.11474-0.076l-2.8149-4.5916c-0.0166-0.0233-0.009-0.0482 0.0228-0.0724 0.0298-0.0233 0.0788-0.0461 0.14715-0.0653 0.0691-0.0192 0.15764-0.0359 0.26099-0.0471 0.10597-0.0111 0.22597-0.0182 0.35909-0.0182h19.531z"/>
    <path id="path4999" style="stroke:#393939;stroke-width:.41326;fill:#ffffff" inkscape:connector-curvature="0" d="m438.2 536.11c0.13575 0 0.268 0.008 0.38711 0.0187 0.12261 0.0112 0.2356 0.0283 0.33456 0.0476 0.0963 0.0192 0.18217 0.0421 0.24611 0.0653 0.0648 0.0237 0.11123 0.0482 0.13137 0.0719l4.0936 4.5936c0.021 0.0254 0.021 0.0512 0 0.076-0.0228 0.0248-0.0692 0.0492-0.13313 0.0699-0.0648 0.0202-0.15064 0.0386-0.25398 0.0506-0.10335 0.0127-0.2286 0.0197-0.36698 0.0197h-20.2c-0.14014 0-0.27326-0.007-0.39851-0.0193-0.12436-0.0122-0.23909-0.0298-0.33894-0.0506-0.0999-0.0207-0.18217-0.0447-0.24612-0.0703-0.0648-0.0242-0.10859-0.0506-0.12699-0.0755l-3.4744-4.5926c-0.0185-0.0237-0.014-0.0482 0.014-0.0719 0.0253-0.0238 0.0718-0.046 0.13838-0.0653 0.0666-0.0198 0.1524-0.0359 0.25312-0.0476 0.10334-0.0116 0.2242-0.0187 0.35909-0.0187h19.706z"/>
    <path id="path5011" style="stroke:#393939;stroke-width:.41326;fill:#ffffff" inkscape:connector-curvature="0" d="m458.08 536.11c0.13575 0 0.268 0.007 0.39237 0.0177 0.12173 0.0111 0.23735 0.0284 0.33893 0.0476 0.099 0.0193 0.18656 0.0421 0.25575 0.0653 0.0666 0.0242 0.1156 0.0492 0.14013 0.0724l4.6655 4.5936c0.0254 0.0254 0.028 0.0521 0.009 0.0765-0.0183 0.0254-0.0596 0.0491-0.12174 0.0703-0.0648 0.0203-0.14801 0.0374-0.24961 0.0506-0.10334 0.0116-0.22333 0.0193-0.36346 0.0193h-16.86c-0.14013 0-0.27413-0.007-0.40113-0.0193-0.12699-0.0117-0.24173-0.0303-0.34594-0.0506-0.10073-0.0207-0.18917-0.0451-0.25575-0.0699-0.0692-0.0254-0.11736-0.0512-0.13838-0.076l-4.1418-4.5936c-0.0202-0.0238-0.0183-0.0487 0-0.0719 0.0236-0.0233 0.0674-0.046 0.13138-0.0653 0.0622-0.0193 0.14538-0.0359 0.2461-0.0476 0.1016-0.0116 0.21896-0.0187 0.35559-0.0187h16.465z"/>
    <path id="path5235" style="stroke:#393939;stroke-width:.41326;fill:#ffffff" inkscape:connector-curvature="0" d="m166.29 541.68c0.13922 0 0.26355 0.007 0.36954 0.0182 0.1034 0.0122 0.19092 0.0289 0.25927 0.0496 0.0674 0.0197 0.11379 0.043 0.14013 0.0678 0.0247 0.0248 0.0286 0.0512 0.01 0.0765l-3.8896 4.9187c-0.0202 0.0254-0.0665 0.0527-0.13304 0.0785-0.0675 0.0264-0.15593 0.0506-0.25842 0.073-0.10423 0.0218-0.22421 0.0405-0.35296 0.0537-0.12876 0.0127-0.26713 0.0207-0.40987 0.0207l-36.821-0.001c-0.14358 0-0.26882-0.008-0.37482-0.0207-0.10593-0.0132-0.19358-0.0315-0.25835-0.0537-0.0637-0.0218-0.10768-0.0466-0.12966-0.0729-0.0215-0.0258-0.0195-0.0527 0.007-0.0785l5.0106-4.9172c0.0267-0.0254 0.0788-0.0512 0.15067-0.0755 0.0709-0.0248 0.16107-0.0482 0.26713-0.0689 0.10502-0.0202 0.22415-0.0364 0.35296-0.0486 0.12694-0.0122 0.26271-0.0193 0.40194-0.0193h35.655z"/>
    <path id="path5259" style="stroke:#393939;stroke-width:.41326;fill:#ffffff" inkscape:connector-curvature="0" d="m189.99 541.68c0.13919 0 0.2636 0.007 0.37129 0.0187 0.10512 0.0117 0.19622 0.0294 0.26713 0.0496 0.0692 0.0203 0.12004 0.0435 0.14981 0.0684 0.0296 0.0248 0.0367 0.0512 0.0212 0.076l-3.1836 4.9197c-0.0167 0.0258-0.0585 0.0527-0.12261 0.0785-0.063 0.0264-0.148 0.0517-0.24784 0.0729-0.0999 0.0223-0.21634 0.041-0.34506 0.0537-0.12704 0.0132-0.2654 0.0207-0.40813 0.0207l-20.824-0.00051c-0.14624 0-0.27499-0.008-0.38443-0.0207-0.10951-0.0132-0.1997-0.0319-0.27149-0.0537-0.0693-0.0212-0.11744-0.0466-0.14365-0.0729-0.026-0.0264-0.0312-0.0532-0.0117-0.0785l3.8413-4.9187c0.0202-0.0258 0.0644-0.0521 0.12882-0.0765 0.065-0.0242 0.14969-0.0482 0.24957-0.0678 0.0998-0.0207 0.21543-0.037 0.34068-0.0496 0.12524-0.0117 0.26101-0.0193 0.4029-0.0193h20.17z"/>
    <path id="path5275" style="stroke:#393939;stroke-width:.41326;fill:#ffffff" inkscape:connector-curvature="0" d="m213.47 541.68c0.13836 0 0.26534 0.007 0.37483 0.0187s0.20407 0.0289 0.27761 0.0496c0.0736 0.0197 0.12969 0.043 0.16383 0.0678 0.0354 0.0248 0.0463 0.0516 0.0321 0.0764l-2.4803 4.9207c-0.0141 0.0258-0.0534 0.0527-0.11296 0.0785-0.0604 0.0258-0.14273 0.0517-0.24174 0.0735-0.0989 0.0212-0.21281 0.0399-0.33895 0.0532-0.12698 0.0132-0.26534 0.0207-0.40813 0.0207l-20.833-0.0006c-0.14453 0-0.27325-0.008-0.38364-0.0207-0.11033-0.0127-0.2049-0.0313-0.27851-0.0527-0.0736-0.0223-0.12698-0.0476-0.15675-0.0739-0.0321-0.0258-0.0405-0.0527-0.0225-0.0785l3.1398-4.9197c0.0154-0.0254 0.0572-0.0517 0.11997-0.076 0.063-0.0242 0.14537-0.0482 0.24174-0.0684 0.0972-0.0203 0.21017-0.0374 0.33458-0.0496 0.12344-0.0117 0.25659-0.0187 0.39584-0.0187h20.179z"/>
    <path id="path5293" style="stroke:#393939;stroke-width:.41326;fill:#ffffff" inkscape:connector-curvature="0" d="m236.96 541.68c0.14014 0 0.26976 0.008 0.38187 0.0182 0.1121 0.0122 0.20669 0.0298 0.28465 0.0496 0.0762 0.0207 0.134 0.0441 0.1699 0.0689 0.0368 0.0248 0.0525 0.0506 0.0429 0.076l-1.7797 4.9218c-0.01 0.0263-0.0438 0.0527-0.0998 0.0785-0.0552 0.0268-0.13313 0.0515-0.2286 0.0734-0.0937 0.0223-0.20669 0.041-0.33193 0.0532-0.12437 0.0132-0.26275 0.0212-0.41077 0.0212l-20.841-0.00051c-0.14363 0-0.27414-0.008-0.38711-0.0212-0.11295-0.0127-0.20933-0.0313-0.28552-0.0532-0.0762-0.0218-0.13315-0.0476-0.16819-0.0735-0.0341-0.0264-0.0482-0.0527-0.0341-0.0785l2.4383-4.9207c0.014-0.0263 0.0517-0.0521 0.10948-0.0765 0.0587-0.0248 0.13749-0.0482 0.23209-0.0678 0.0955-0.0207 0.20582-0.0374 0.32756-0.0496 0.12261-0.0117 0.25574-0.0187 0.39412-0.0187l20.188-0.005z"/>
    <path id="path5311" style="stroke:#393939;stroke-width:.41326;fill:#ffffff" inkscape:connector-curvature="0" d="m260.46 541.68c0.14013 0 0.2715 0.007 0.38448 0.0182 0.11298 0.0122 0.21195 0.0289 0.29165 0.0496 0.0797 0.0202 0.14188 0.0435 0.1813 0.0684 0.0403 0.0254 0.0578 0.0512 0.0534 0.0764l-1.0764 4.9223c-0.006 0.0264-0.0368 0.0532-0.0902 0.0795-0.0525 0.0258-0.12699 0.0506-0.21808 0.0729-0.0911 0.0218-0.20144 0.0405-0.32405 0.0537-0.12437 0.0122-0.26013 0.0207-0.40814 0.0207l-20.851-0.00059c-0.14363 0-0.27326-0.008-0.38799-0.0207-0.11385-0.0127-0.21195-0.0313-0.2899-0.0537-0.0788-0.0218-0.13749-0.0466-0.17516-0.0734-0.0385-0.0258-0.0534-0.0527-0.0447-0.0785l1.7368-4.9218c0.01-0.0258 0.0447-0.0517 0.0972-0.076 0.0542-0.0248 0.12786-0.0482 0.21895-0.0689 0.0911-0.0197 0.19793-0.0369 0.31617-0.0496 0.11911-0.0117 0.25049-0.0182 0.38975-0.0182h20.196z"/>
    <path id="path5329" style="stroke:#393939;stroke-width:.41326;fill:#ffffff" inkscape:connector-curvature="0" d="m283.97 541.68c0.14276 0 0.27325 0.007 0.38799 0.0188 0.11648 0.0117 0.21545 0.0294 0.29866 0.0496 0.0832 0.0207 0.14801 0.0441 0.1918 0.0689 0.0438 0.0248 0.0666 0.0506 0.064 0.0765l-0.37486 4.9238c-0.00064 0.0254-0.028 0.0527-0.077 0.0785-0.0499 0.0264-0.11999 0.0517-0.20845 0.0729-0.0893 0.0218-0.19531 0.0405-0.31618 0.0537-0.12086 0.0132-0.25748 0.0207-0.40375 0.0207l-20.859-0.00049c-0.14539 0-0.27588-0.008-0.3915-0.0207-0.11648-0.0132-0.2172-0.0319-0.29866-0.0537-0.0823-0.0223-0.14451-0.0471-0.18567-0.0729-0.0421-0.0264-0.0595-0.0532-0.0552-0.0785l1.0352-4.9233c0.007-0.0258 0.0351-0.0517 0.0858-0.0765 0.0508-0.0248 0.12262-0.0482 0.20933-0.0684 0.0885-0.0207 0.19267-0.0369 0.31004-0.0496 0.11736-0.0117 0.24785-0.0182 0.38711-0.0182h20.214z"/>
    <path id="path5359" style="stroke:#393939;stroke-width:.41326;fill:#ffffff" inkscape:connector-curvature="0" d="m307.53 541.68c0.13839 0 0.26801 0.007 0.38449 0.0188 0.11562 0.0117 0.21634 0.0294 0.30217 0.0496 0.0858 0.0198 0.15239 0.043 0.20056 0.0689 0.0464 0.0248 0.0727 0.0506 0.0736 0.0755l0.32931 4.9253c0 0.0258-0.0202 0.0527-0.0666 0.0785-0.0447 0.0264-0.11035 0.0517-0.19618 0.0739-0.0858 0.0212-0.18918 0.0399-0.30654 0.0527-0.11824 0.0137-0.25136 0.0218-0.39412 0.0218l-20.869-0.001c-0.14714 0-0.28202-0.008-0.40113-0.0207-0.11998-0.0131-0.22333-0.0319-0.30917-0.0537-0.0858-0.0212-0.15327-0.0466-0.1988-0.0729-0.0447-0.0258-0.0692-0.0531-0.0666-0.0785l0.33194-4.9238c0.003-0.0264 0.0272-0.0521 0.0762-0.0765 0.0464-0.0248 0.11561-0.0482 0.20057-0.0689 0.0858-0.0203 0.18917-0.0374 0.30741-0.0496 0.11648-0.0117 0.24786-0.0187 0.38887-0.0187h20.196z"/>
    <path id="path5379" style="stroke:#393939;stroke-width:.41326;fill:#ffffff" inkscape:connector-curvature="0" d="m331 541.68c0.14014 0 0.26976 0.008 0.38887 0.0193 0.11824 0.0116 0.22158 0.0289 0.31004 0.0492 0.0876 0.0202 0.1594 0.0435 0.20932 0.0684 0.0499 0.0248 0.0806 0.0512 0.085 0.0765l1.0361 4.9263c0.009 0.0258-0.0166 0.0527-0.0551 0.0785-0.0412 0.0258-0.10597 0.0517-0.18655 0.0734-0.0832 0.0223-0.18216 0.0405-0.30041 0.0532-0.11561 0.0132-0.24611 0.0212-0.39149 0.0212l-20.878-0.00051c-0.14802 0-0.28376-0.008-0.40376-0.0218-0.12261-0.0127-0.22858-0.0313-0.31792-0.0527-0.0876-0.0223-0.1594-0.0476-0.20669-0.0739-0.049-0.0258-0.0762-0.0527-0.0788-0.0785l-0.37134-4.9253c0-0.0254 0.0202-0.0512 0.064-0.0755 0.0447-0.0258 0.10859-0.0492 0.1918-0.0689 0.0832-0.0202 0.18305-0.0374 0.30041-0.0496 0.11473-0.0116 0.24523-0.0187 0.38624-0.0187h20.231z"/>
    <path id="path5399" style="stroke:#393939;stroke-width:.41326;fill:#ffffff" inkscape:connector-curvature="0" d="m354.56 541.68c0.14012 0 0.27238 0.007 0.39148 0.0188 0.11912 0.0117 0.2286 0.0294 0.31968 0.0496 0.092 0.0198 0.16817 0.043 0.22421 0.0684 0.0552 0.0248 0.0902 0.0512 0.0963 0.076l1.7403 4.9268c0.01 0.0263-0.009 0.0527-0.0464 0.0785-0.0393 0.0268-0.099 0.0515-0.17954 0.0734-0.0806 0.0223-0.17955 0.041-0.29515 0.0542-0.11561 0.0122-0.24699 0.0202-0.38887 0.0202l-20.89-0.00051c-0.14539 0-0.28377-0.008-0.40638-0.0207-0.12437-0.0131-0.23298-0.0314-0.32494-0.0537-0.092-0.0218-0.16552-0.0476-0.21895-0.0735-0.0534-0.0264-0.0832-0.0527-0.0902-0.0785l-1.0746-4.9263c-0.009-0.0258 0.0123-0.0521 0.0534-0.0765 0.0394-0.0248 0.10073-0.0482 0.18218-0.0684 0.078-0.0202 0.1769-0.0374 0.2899-0.0496 0.11561-0.0111 0.24435-0.0188 0.38711-0.0188h20.319z"/>
    <path id="path5415" style="stroke:#393939;stroke-width:.41326;fill:#ffffff" inkscape:connector-curvature="0" d="m378.12 541.68c0.13838 0 0.27238 0.008 0.39412 0.0193 0.12174 0.0116 0.23297 0.0289 0.32756 0.0486 0.0963 0.0207 0.17517 0.0441 0.23559 0.0689 0.057 0.0248 0.0964 0.0517 0.10773 0.0765l2.4444 4.9278c0.014 0.0258 0 0.0527-0.0351 0.079-0.035 0.0258-0.092 0.0506-0.16816 0.0729-0.0788 0.0218-0.17516 0.0405-0.28814 0.0537-0.11299 0.0132-0.24348 0.0207-0.38712 0.0207l-20.898-0.00059c-0.14276 0-0.27851-0.007-0.40376-0.0202-0.1226-0.0131-0.23559-0.0319-0.3293-0.0542-0.092-0.0218-0.17079-0.0466-0.22684-0.0735-0.057-0.0258-0.0911-0.0527-0.10072-0.0785l-1.7797-4.9268c-0.01-0.0254 0.009-0.0517 0.0421-0.076 0.0368-0.0254 0.0937-0.0486 0.16991-0.0684 0.0762-0.0202 0.17078-0.0374 0.28114-0.0496 0.11123-0.0116 0.23735-0.0187 0.37836-0.0187h20.319z"/>
    <path id="path5425" style="stroke:#393939;stroke-width:.41326;fill:#ffffff" inkscape:connector-curvature="0" d="m401.68 541.68c0.13837 0 0.27238 0.007 0.39412 0.0182 0.12524 0.0122 0.2356 0.0298 0.33193 0.0496 0.0963 0.0203 0.17954 0.0441 0.23911 0.0689 0.0622 0.0248 0.10158 0.0506 0.11822 0.076l3.1512 4.9294c0.0166 0.0254 0.01 0.0527-0.0202 0.0785-0.0323 0.0263-0.0832 0.0516-0.15677 0.0729-0.0718 0.0223-0.16466 0.0405-0.27414 0.0537-0.11123 0.0131-0.2391 0.0212-0.38361 0.0212l-20.917-0.00052c-0.14539-0.00049-0.28289-0.008-0.40813-0.0212-0.127-0.0131-0.2391-0.0319-0.33895-0.0537-0.0963-0.0223-0.17691-0.0471-0.23735-0.0729-0.0596-0.0264-0.0981-0.0532-0.11298-0.079l-2.4847-4.9278c-0.014-0.0254 0-0.0521 0.0324-0.0765 0.0315-0.0248 0.0849-0.0482 0.1594-0.0689 0.0736-0.0197 0.16553-0.037 0.27588-0.0496 0.1086-0.0117 0.23559-0.0182 0.37573-0.0182h20.232z"/>
    <path id="path5443" style="stroke:#393939;stroke-width:.41326;fill:#ffffff" inkscape:connector-curvature="0" d="m425.24 541.68c0.14014 0 0.27414 0.008 0.3985 0.0193 0.12524 0.0122 0.23998 0.0289 0.33982 0.0496 0.0981 0.0203 0.18393 0.0435 0.24874 0.0684 0.064 0.0254 0.11035 0.0512 0.12874 0.0765l3.8563 4.9304c0.0202 0.0254 0.0157 0.0527-0.01 0.0785-0.0272 0.0258-0.0762 0.0512-0.1454 0.0735-0.0691 0.0218-0.15939 0.0405-0.268 0.0532-0.10773 0.0132-0.23735 0.0212-0.38011 0.0212l-20.927-0.00059c-0.14539 0-0.28376-0.008-0.41076-0.0212-0.12875-0.0122-0.24435-0.0314-0.34595-0.0532-0.099-0.0218-0.1848-0.0471-0.24873-0.0735-0.0622-0.0258-0.10598-0.0532-0.12262-0.0785l-3.1933-4.9293c-0.0166-0.0258-0.01-0.0517 0.0202-0.076 0.0298-0.0242 0.0806-0.0486 0.1524-0.0689 0.0692-0.0197 0.15939-0.0369 0.26799-0.0496 0.10598-0.0116 0.23298-0.0182 0.37048-0.0182l20.232 0.005z"/>
    <path id="path5459" style="stroke:#393939;stroke-width:.41326;fill:#ffffff" inkscape:connector-curvature="0" d="m463.69 541.68c0.14102 0 0.27676 0.008 0.40639 0.0193 0.127 0.0116 0.2461 0.0289 0.34946 0.0496 0.10422 0.0197 0.19443 0.043 0.26537 0.0689 0.0718 0.0248 0.12261 0.0506 0.14802 0.0755l5.0115 4.9324c0.0254 0.0254 0.0272 0.0527 0.009 0.0785-0.0202 0.0264-0.0613 0.0517-0.12699 0.0739-0.0648 0.0218-0.15239 0.0405-0.25575 0.0527-0.10597 0.0132-0.23296 0.0212-0.37835 0.0212l-35.931-0.00059c-0.1454 0-0.28639-0.008-0.41515-0.0207-0.12962-0.0131-0.24961-0.0319-0.35295-0.0537-0.10335-0.0223-0.19356-0.0476-0.261-0.0735-0.0666-0.0263-0.11298-0.0532-0.13312-0.0785l-3.9097-4.9304c-0.0202-0.0258-0.0166-0.0517 0.01-0.0764 0.0253-0.0248 0.0736-0.0482 0.14013-0.0684 0.0692-0.0207 0.15765-0.037 0.26362-0.0496 0.10597-0.0116 0.22771-0.0193 0.36873-0.0193h34.77z"/>
    <path id="path5665" style="stroke:#393939;stroke-width:.41326;fill:#ffffff" inkscape:connector-curvature="0" d="m173.62 547.56c0.1454 0 0.27233 0.008 0.38184 0.0212 0.1095 0.0131 0.19969 0.0319 0.27148 0.0542 0.0693 0.0223 0.12004 0.0482 0.14722 0.0755 0.0267 0.0268 0.0319 0.0548 0.0124 0.0826l-3.8063 5.2822c-0.0202 0.0284-0.0666 0.0567-0.13578 0.0846-0.0674 0.0289-0.15853 0.0551-0.26452 0.0785-0.10593 0.0237-0.22942 0.0435-0.36168 0.0572-0.13227 0.0147-0.27591 0.0228-0.42482 0.0228l-50.599-0.004c-0.14715 0-0.27851-0.009-0.3871-0.0228-0.11042-0.0141-0.19794-0.0338-0.26537-0.0572-0.0666-0.0233-0.11127-0.0512-0.13227-0.0785-0.0202-0.0284-0.0176-0.0567 0.0117-0.0846l5.3802-5.2807c0.0293-0.0268 0.0832-0.0553 0.15945-0.0815 0.0753-0.0278 0.17076-0.0532 0.28105-0.0755 0.11041-0.0228 0.23565-0.041 0.36883-0.0542 0.13395-0.0131 0.27402-0.0212 0.41949-0.0212h48.95z"/>
    <path id="path5683" style="stroke:#393939;stroke-width:.41326;fill:#ffffff" inkscape:connector-curvature="0" d="m197.75 547.56c0.14363 0 0.27324 0.008 0.38356 0.0207 0.1104 0.0131 0.20407 0.0325 0.27852 0.0547 0.0736 0.0228 0.12698 0.0486 0.15765 0.0749 0.0315 0.0273 0.0405 0.0552 0.0245 0.0826l-3.0592 5.2838c-0.0167 0.0284-0.0598 0.0572-0.12441 0.0856-0.0648 0.0278-0.15063 0.0542-0.25395 0.0785-0.10249 0.0233-0.22162 0.043-0.35207 0.0572-0.13141 0.0137-0.27414 0.0218-0.42394 0.0218l-21.598-0.001c-0.1506 0-0.28547-0.008-0.39855-0.0218-0.11555-0.0141-0.20926-0.0339-0.28287-0.0582-0.0744-0.0233-0.12524-0.0501-0.15411-0.0775-0.028-0.0284-0.0332-0.0572-0.0143-0.0856l3.7669-5.2823c0.0195-0.0279 0.0657-0.0557 0.13142-0.0826 0.0656-0.0279 0.1532-0.0532 0.25659-0.0755 0.10157-0.0223 0.22155-0.041 0.3503-0.0542 0.12966-0.0131 0.2724-0.0212 0.41864-0.0212l20.888-0.005z"/>
    <path id="path5695" style="stroke:#393939;stroke-width:.41326;fill:#ffffff" inkscape:connector-curvature="0" d="m222.07 547.57c0.14364 0 0.27326 0.008 0.38887 0.0212 0.11298 0.0132 0.21107 0.0319 0.28814 0.0542 0.0788 0.0223 0.13839 0.0482 0.17254 0.0754 0.0368 0.0268 0.0508 0.0552 0.0394 0.0826l-2.3069 5.2853c-0.0123 0.0278-0.0517 0.0562-0.11385 0.0846-0.0596 0.0278-0.1454 0.0551-0.24523 0.0785-0.1016 0.0233-0.21983 0.043-0.34858 0.0572-0.13137 0.0137-0.27238 0.0228-0.42215 0.0228l-21.607-0.003c-0.14974 0-0.2829-0.009-0.39939-0.0223-0.1165-0.0142-0.21371-0.0338-0.29163-0.0572-0.078-0.0233-0.13399-0.0512-0.16729-0.0785-0.0334-0.0284-0.0437-0.0572-0.0283-0.0846l3.0146-5.2848c0.0167-0.0273 0.0572-0.0552 0.12087-0.0826 0.0643-0.0268 0.1489-0.0527 0.24784-0.0749 0.10165-0.0223 0.21808-0.0416 0.34596-0.0547 0.12788-0.0132 0.2654-0.0207 0.41076-0.0207l20.888-0.0101z"/>
    <path id="path5713" style="stroke:#393939;stroke-width:.41326;fill:#ffffff" inkscape:connector-curvature="0" d="m246.4 547.57c0.14626 0.0006 0.27938 0.008 0.39586 0.0212 0.11825 0.0132 0.21633 0.0325 0.29778 0.0548 0.0806 0.0228 0.14189 0.0486 0.18041 0.0749 0.0394 0.0273 0.0561 0.0551 0.0482 0.0826l-1.5511 5.2863c-0.007 0.0278-0.0421 0.0572-0.099 0.0851-0.0561 0.0284-0.13576 0.0547-0.23298 0.078-0.0972 0.0237-0.21195 0.0441-0.34157 0.0577-0.12962 0.0137-0.27238 0.0223-0.4239 0.0223l-21.616-0.001c-0.14977 0-0.28377-0.009-0.40113-0.0223-0.11823-0.0146-0.21632-0.0344-0.29515-0.0578-0.0806-0.0233-0.13925-0.0501-0.17516-0.078-0.0368-0.0289-0.0508-0.0572-0.0394-0.0851l2.2614-5.2853c0.0123-0.0273 0.049-0.0557 0.10772-0.0826 0.0578-0.0278 0.13751-0.0532 0.23385-0.0755 0.0963-0.0223 0.20844-0.041 0.33457-0.0542 0.12436-0.0132 0.261-0.0212 0.4055-0.0212h20.906z"/>
    <path id="path5737" style="stroke:#393939;stroke-width:.41326;fill:#ffffff" inkscape:connector-curvature="0" d="m270.74 547.57c0.14626 0 0.28025 0.008 0.39937 0.0212s0.22159 0.0319 0.30479 0.0542c0.0858 0.0223 0.14977 0.0486 0.19269 0.0754 0.043 0.0268 0.0631 0.0552 0.0596 0.0826l-0.79612 5.2873c-0.005 0.0273-0.0351 0.0567-0.0885 0.0846-0.0534 0.0284-0.12787 0.0547-0.22246 0.0785-0.0928 0.0233-0.20582 0.0435-0.33281 0.0572-0.127 0.0137-0.268 0.0228-0.41952 0.0228l-21.627-0.001c-0.14977 0-0.28464-0.009-0.40375-0.0228-0.11999-0.0136-0.22071-0.0339-0.30391-0.0572-0.0832-0.0237-0.14714-0.0506-0.18742-0.0785-0.0403-0.0279-0.057-0.0572-0.0508-0.0851l1.5082-5.2863c0.007-0.0273 0.0412-0.0551 0.0946-0.0826 0.0542-0.0268 0.13049-0.0527 0.22333-0.0749 0.0937-0.0223 0.20232-0.0416 0.32581-0.0546 0.12348-0.0132 0.25924-0.0203 0.40375-0.0203l20.915-0.0102z"/>
    <path id="path5759" style="stroke:#393939;stroke-width:.41326;fill:#ffffff" inkscape:connector-curvature="0" d="m295.1 547.57c0.14538 0 0.27851 0.008 0.3985 0.0212 0.11823 0.0132 0.22246 0.0325 0.30917 0.0548 0.0867 0.0228 0.15502 0.0482 0.20143 0.0749 0.0464 0.0268 0.0718 0.0551 0.0718 0.0826l-0.0429 5.2888c0 0.0283-0.0253 0.0567-0.0736 0.0846-0.0499 0.0289-0.12086 0.0551-0.2102 0.0785-0.0893 0.0233-0.19793 0.0435-0.32143 0.0577-0.12349 0.0141-0.26187 0.0223-0.41163 0.0223l-21.648-0.001c-0.14889 0-0.28639-0.008-0.40725-0.0228-0.12174-0.0137-0.22772-0.0339-0.31179-0.0572-0.0858-0.0233-0.15415-0.0506-0.19882-0.0785-0.0438-0.0278-0.0657-0.0572-0.0622-0.0846l0.75233-5.2873c0.003-0.0273 0.0333-0.0557 0.0841-0.0826 0.0517-0.0273 0.12262-0.0532 0.21196-0.0755 0.0911-0.0223 0.1988-0.041 0.31791-0.0542 0.12262-0.0132 0.25662-0.0212 0.40114-0.0212h20.958z"/>
    <path id="path5771" style="stroke:#393939;stroke-width:.41326;fill:#ffffff" inkscape:connector-curvature="0" d="m319.44 547.57c0.14362 0 0.2785 0.008 0.39849 0.0212 0.12261 0.0132 0.22858 0.0319 0.31792 0.0542 0.0893 0.0223 0.16203 0.0486 0.21195 0.0754 0.0508 0.0268 0.0806 0.0552 0.0841 0.0826l0.71292 5.2894c0.009 0.0284-0.0183 0.0572-0.0613 0.0856-0.0464 0.0279-0.11297 0.0542-0.1988 0.0785-0.0876 0.0233-0.19181 0.043-0.31267 0.0572-0.12263 0.0136-0.25837 0.0223-0.40901 0.0223l-21.647-0.001c-0.1524 0-0.29254-0.009-0.41778-0.0228-0.12436-0.0137-0.23297-0.0334-0.32318-0.0577-0.0911-0.0233-0.16202-0.0501-0.21107-0.0775-0.049-0.0283-0.0736-0.0572-0.0736-0.0856l-0.003-5.2889c0-0.0273 0.0237-0.0552 0.0718-0.0826 0.0473-0.0268 0.11473-0.0527 0.20232-0.0749 0.0876-0.0223 0.19355-0.0416 0.31267-0.0547 0.12173-0.0132 0.25748-0.0212 0.40375-0.0203l20.985 0.005z"/>
    <path id="path5797" style="stroke:#393939;stroke-width:.41326;fill:#ffffff" inkscape:connector-curvature="0" d="m343.88 547.57c0.14538 0 0.28113 0.008 0.40374 0.0212 0.12524 0.0132 0.23561 0.0325 0.32757 0.0548 0.0911 0.0228 0.16816 0.0482 0.22333 0.0749 0.0535 0.0273 0.0876 0.0551 0.0946 0.0826l1.4705 5.2919c0.009 0.0273-0.0114 0.0562-0.0508 0.0846-0.0421 0.0279-0.10334 0.0552-0.18742 0.0785-0.0823 0.0234-0.18655 0.0431-0.30654 0.0572s-0.25574 0.0223-0.40551 0.0223l-21.656-0.001c-0.14976 0-0.2899-0.008-0.41777-0.0223-0.12437-0.0141-0.23735-0.0339-0.33194-0.0572-0.0946-0.0234-0.16991-0.0512-0.22333-0.0785-0.0552-0.0284-0.0858-0.0572-0.0911-0.0851l-0.75758-5.2899c-0.009-0.0273 0.0183-0.0557 0.0613-0.0826 0.0447-0.0273 0.11123-0.0532 0.19706-0.0755 0.0832-0.0223 0.18655-0.041 0.30654-0.0542 0.11823-0.0132 0.25136-0.0212 0.39676-0.0212l21.02 0.005z"/>
    <path id="path5811" style="stroke:#393939;stroke-width:.41326;fill:#ffffff" inkscape:connector-curvature="0" d="m368.22 547.57c0.1454 0 0.28378 0.008 0.41077 0.0207 0.12524 0.0132 0.2391 0.0325 0.33719 0.0542 0.0963 0.0228 0.17692 0.0492 0.23736 0.076 0.0595 0.0268 0.0963 0.0552 0.1086 0.0826l2.229 5.2924c0.0123 0.0278 0 0.0567-0.0412 0.0851-0.0376 0.0284-0.0972 0.0547-0.18042 0.078-0.0806 0.0237-0.18218 0.0441-0.29954 0.0577-0.11998 0.0137-0.25573 0.0228-0.40637 0.0228l-21.664-0.001c-0.14976-0.00059-0.2899-0.009-0.41952-0.0228-0.12786-0.0136-0.24347-0.0339-0.3407-0.0578-0.099-0.0233-0.17779-0.0501-0.23559-0.0785s-0.0946-0.0567-0.1016-0.0846l-1.5169-5.2919c-0.009-0.0273 0.0123-0.0552 0.0517-0.0826 0.0412-0.0268 0.10336-0.0527 0.1848-0.0749 0.0823-0.0223 0.18393-0.0416 0.29954-0.0547 0.11735-0.0132 0.24873-0.0212 0.39411-0.0212h20.932z"/>
    <path id="path5823" style="stroke:#393939;stroke-width:.41326;fill:#ffffff" inkscape:connector-curvature="0" d="m392.66 547.57c0.14715 0 0.28727 0.008 0.41777 0.0212 0.127 0.0132 0.24348 0.0319 0.34333 0.0546 0.1016 0.0229 0.1848 0.0482 0.24697 0.075 0.0613 0.0273 0.10336 0.0551 0.12 0.0826l2.9848 5.2939c0.0166 0.0279 0.009 0.0567-0.0272 0.0851-0.0323 0.0284-0.0885 0.0551-0.16554 0.0785-0.077 0.0233-0.17341 0.0435-0.29077 0.0572-0.11824 0.0146-0.25311 0.0228-0.40551 0.0228l-21.677-0.001c-0.14976 0-0.29252-0.008-0.42127-0.0228-0.12874-0.0136-0.24611-0.0339-0.34595-0.0572-0.099-0.0237-0.18217-0.0506-0.24173-0.0785-0.0595-0.0278-0.099-0.0572-0.11123-0.0851l-2.2728-5.2924c-0.014-0.0273 0-0.0557 0.0351-0.0826 0.0368-0.0273 0.0937-0.0532 0.16991-0.0749 0.0788-0.0228 0.17516-0.0416 0.28814-0.0547 0.11298-0.0137 0.24173-0.0212 0.38711-0.0212l21.02-0.0102z"/>
    <path id="path5841" style="stroke:#393939;stroke-width:.41326;fill:#ffffff" inkscape:connector-curvature="0" d="m417.01 547.57c0.14538 0 0.2864 0.008 0.41514 0.0207 0.12874 0.0132 0.24699 0.0325 0.35033 0.0542 0.10159 0.0228 0.18918 0.0492 0.25574 0.0755 0.0648 0.0273 0.11036 0.0557 0.12875 0.083l3.7459 5.2949c0.0185 0.0284 0.014 0.0567-0.014 0.0846-0.0298 0.0284-0.0814 0.0551-0.15502 0.0785-0.0736 0.0242-0.16815 0.0441-0.28114 0.0577-0.11298 0.0141-0.24611 0.0223-0.39587 0.0223l-21.696-0.001c-0.15065 0-0.29341-0.008-0.4239-0.0223-0.13138-0.0141-0.25137-0.0344-0.35559-0.0578-0.10335-0.0233-0.18831-0.0506-0.25312-0.0785-0.0648-0.0278-0.1086-0.0572-0.12524-0.0846l-3.0312-5.2944c-0.0157-0.0273-0.009-0.0552 0.0253-0.0826 0.0324-0.0273 0.0858-0.0527 0.1594-0.0749 0.0736-0.0223 0.16728-0.0416 0.28113-0.0547 0.11036-0.0132 0.23911-0.0212 0.3845-0.0212l21.107 0.005z"/>
    <path id="path5859" style="stroke:#393939;stroke-width:.41326;fill:#ffffff" inkscape:connector-curvature="0" d="m469.64 547.57c0.14452 0 0.28814 0.008 0.41952 0.0207 0.134 0.0132 0.25837 0.0325 0.36872 0.0551 0.1086 0.0218 0.20319 0.0482 0.27938 0.075 0.0736 0.0268 0.12875 0.0551 0.15678 0.0826l5.3802 5.2975c0.028 0.0284 0.0323 0.0572 0.0123 0.0856-0.0183 0.0283-0.0622 0.0542-0.12874 0.0785-0.0666 0.0233-0.15501 0.0435-0.26274 0.0572-0.11124 0.0141-0.23911 0.0228-0.38975 0.0228l-50.866-0.005c-0.14977 0-0.29515-0.009-0.42915-0.0228-0.13313-0.0136-0.25486-0.0334-0.36084-0.0567-0.10598-0.0242-0.19706-0.0512-0.26537-0.079-0.0701-0.0283-0.11561-0.0567-0.13664-0.0851l-3.7888-5.2949c-0.0183-0.0273-0.0148-0.0557 0.014-0.0826 0.0272-0.0273 0.0762-0.0532 0.14714-0.0749 0.0718-0.0228 0.16202-0.0415 0.27238-0.0551 0.1086-0.0131 0.23734-0.0207 0.38361-0.0207l49.221 0.0102z"/>
    <path id="path5969" style="stroke:#393939;stroke-width:.41326;fill:#ffffff" inkscape:connector-curvature="0" d="m452.04 554.27c0.15239 0 0.30216 0.009 0.44054 0.0228 0.1375 0.0147 0.26712 0.0344 0.37835 0.0588 0.11299 0.0233 0.2067 0.0506 0.28114 0.079 0.0736 0.0289 0.127 0.0577 0.1524 0.0866l2.2701 2.5854c0.0272 0.0308 0.0272 0.0618 0.009 0.0922-0.0237 0.0308-0.0718 0.0593-0.14364 0.084-0.0683 0.0254-0.16377 0.0456-0.27851 0.0612-0.11473 0.0142-0.25135 0.0234-0.4055 0.0234l-20.923-0.004c-0.15239 0-0.30216-0.009-0.4379-0.0237-0.13839-0.0147-0.26538-0.036-0.37574-0.0608-0.11036-0.0254-0.20494-0.0537-0.27589-0.0841-0.0718-0.0298-0.12349-0.0612-0.14538-0.0922l-1.9417-2.5849c-0.0202-0.0284-0.0157-0.0572 0.0123-0.0861s0.0788-0.0557 0.14976-0.08c0.071-0.0233 0.16554-0.0441 0.27852-0.0577 0.11298-0.0146 0.24698-0.0228 0.39674-0.0228l20.582-0.005z"/>
    <path id="path6045" style="stroke:#393939;stroke-width:.41326;fill:#ffffff" inkscape:connector-curvature="0" d="m138.33 554.02c0.15411 0 0.28638 0.008 0.39933 0.0212 0.11302 0.0136 0.20497 0.0339 0.27331 0.0572 0.0691 0.0233 0.11562 0.0501 0.14007 0.0785 0.0228 0.0289 0.0215 0.0588 0 0.0881l-6.0011 6.7157c-0.0273 0.0319-0.0841 0.0638-0.16204 0.0952-0.078 0.0309-0.17954 0.0597-0.29516 0.0851-0.11744 0.0248-0.24964 0.046-0.39413 0.0612-0.1428 0.0146-0.29691 0.0233-0.45545 0.0233l-21.018-0.004c-0.15411 0-0.28989-0.009-0.4055-0.0242-0.11296-0.0146-0.2049-0.036-0.27416-0.0612-0.0683-0.0254-0.1147-0.0542-0.13395-0.0851-0.0195-0.0308-0.0156-0.0633 0.0175-0.0952l6.8419-6.7142c0.0293-0.0294 0.0884-0.0593 0.16556-0.0881 0.0797-0.0289 0.18038-0.0553 0.29424-0.0785 0.11387-0.0242 0.24431-0.0435 0.38275-0.0572 0.13838-0.0132 0.28638-0.0212 0.43445-0.0212h20.179z"/>
    <path id="path6051" style="stroke:#393939;stroke-width:.41326;fill:#ffffff" inkscape:connector-curvature="0" d="m164.1 554.02c0.14976 0 0.28105 0.008 0.39413 0.0218 0.11295 0.0142 0.20666 0.0339 0.27851 0.0572 0.0726 0.0233 0.12342 0.0501 0.1506 0.0785 0.0267 0.0289 0.0312 0.0588 0.009 0.0881l-5.0229 6.7178c-0.0228 0.0315-0.0736 0.0644-0.148 0.0952-0.0736 0.0308-0.16907 0.0597-0.28033 0.0851-0.11386 0.0254-0.24171 0.0471-0.38093 0.0612-0.14104 0.0152-0.2908 0.0242-0.44758 0.0242l-22.566-0.004c-0.15587 0-0.2934-0.009-0.40902-0.0232-0.11471-0.0152-0.2075-0.037-0.27851-0.0623-0.071-0.0254-0.11997-0.0542-0.14273-0.0851-0.0228-0.0308-0.0215-0.0633 0.007-0.0952l5.9215-6.7157c0.0267-0.0294 0.0788-0.0597 0.15236-0.0881 0.0735-0.0289 0.169-0.0557 0.27851-0.079 0.1095-0.0233 0.2365-0.0425 0.37137-0.0567 0.13486-0.0137 0.27942-0.0218 0.43002-0.0218h21.685z"/>
    <path id="path6059" style="stroke:#393939;stroke-width:.41326;fill:#ffffff" inkscape:connector-curvature="0" d="m189.1 554.02c0.15063 0 0.28372 0.009 0.39758 0.0223 0.1156 0.0136 0.21108 0.0329 0.28726 0.0562 0.0762 0.0237 0.12961 0.0512 0.16202 0.0795 0.0321 0.0284 0.0386 0.0582 0.02 0.0881l-4.0734 6.7193c-0.0199 0.0314-0.0665 0.0638-0.13572 0.0947-0.0683 0.0313-0.16118 0.0608-0.26978 0.0851-0.10858 0.0258-0.23563 0.0471-0.37134 0.0623-0.13843 0.0141-0.28816 0.0233-0.44407 0.0233l-22.565-0.004c-0.15945-0.0005-0.29958-0.009-0.41949-0.0237-0.11822-0.0151-0.21719-0.037-0.29165-0.0612-0.0752-0.0258-0.12784-0.0547-0.15587-0.086-0.0273-0.0308-0.0319-0.0628-0.007-0.0952l4.9746-6.7168c0.0202-0.0303 0.0692-0.0603 0.13928-0.0891 0.0701-0.0289 0.16205-0.0551 0.26889-0.0785 0.10859-0.0234 0.23299-0.043 0.36695-0.0562 0.13577-0.0141 0.28208-0.0223 0.43535-0.0223l21.677 0.005z"/>
    <path id="path6075" style="stroke:#393939;stroke-width:.41326;fill:#ffffff" inkscape:connector-curvature="0" d="m219.21 554.02c0.14976 0 0.28552 0.008 0.40462 0.0218 0.11912 0.0136 0.22072 0.0339 0.30129 0.0572 0.0806 0.0233 0.14013 0.0501 0.17867 0.0785 0.0376 0.0289 0.0525 0.0588 0.0376 0.0886l-2.9322 6.7203c-0.0141 0.0319-0.0552 0.0648-0.12 0.0952-0.0666 0.0308-0.15501 0.0597-0.26099 0.0851-0.10597 0.0254-0.22947 0.0466-0.36522 0.0613-0.13575 0.0151-0.28464 0.0242-0.44141 0.0242l-27.647-0.005c-0.15938 0-0.30128-0.009-0.42041-0.0237-0.1226-0.0146-0.22335-0.036-0.30217-0.0612-0.0788-0.0254-0.13572-0.0547-0.16813-0.0856-0.0315-0.0308-0.0386-0.0633-0.02-0.0952l4.0183-6.7193c0.018-0.0298 0.0624-0.0593 0.12789-0.0881 0.0657-0.0289 0.1541-0.0553 0.25749-0.0795 0.10512-0.0223 0.22599-0.0425 0.35907-0.0562 0.13399-0.0136 0.27852-0.0223 0.43089-0.0212l26.573 0.005z"/>
    <path id="path6147" style="stroke:#393939;stroke-width:.41326;fill:#ffffff" inkscape:connector-curvature="0" d="m377.16 554.04c0.14977 0 0.2934 0.008 0.42389 0.0212 0.12875 0.0141 0.247 0.0338 0.34772 0.0572 0.099 0.0233 0.1848 0.0512 0.24435 0.0795 0.0613 0.0284 0.10334 0.0582 0.11474 0.0876l3.0733 6.732c0.0141 0.0319 0 0.0638-0.0342 0.0952-0.0368 0.0309-0.0963 0.0597-0.18042 0.0851-0.0806 0.0254-0.18393 0.0466-0.30654 0.0613-0.12262 0.0151-0.26275 0.0242-0.41952 0.0242l-27.729-0.005c-0.1594 0-0.30917-0.009-0.44491-0.0233-0.13401-0.0152-0.254-0.0364-0.35472-0.0618-0.10422-0.0258-0.18742-0.0547-0.24698-0.0856-0.0595-0.0315-0.0963-0.0638-0.10597-0.0952l-1.9802-6.7294c-0.009-0.0294 0.01-0.0597 0.0517-0.0886 0.0385-0.0284 0.10334-0.0551 0.18654-0.0785s0.18919-0.0435 0.30917-0.0572c0.12262-0.0132 0.261-0.0212 0.41252-0.0212l26.537 0.0102z"/>
    <path id="path6155" style="stroke:#393939;stroke-width:.41326;fill:#ffffff" inkscape:connector-curvature="0" d="m403.43 554.04c0.15064 0 0.29603 0.008 0.42915 0.0223 0.13138 0.0137 0.25312 0.0334 0.35909 0.0567 0.10598 0.0237 0.19706 0.0512 0.26362 0.0795 0.0666 0.0284 0.11036 0.0582 0.12787 0.0881l4.0708 6.7335c0.0202 0.0313 0.0123 0.0642-0.0202 0.0952-0.0342 0.0313-0.092 0.0603-0.17079 0.0861-0.0806 0.0254-0.18129 0.0466-0.30391 0.0612-0.11999 0.0146-0.26099 0.0238-0.41777 0.0238l-22.409-0.004c-0.15677 0-0.30479-0.009-0.44316-0.0242-0.13577-0.0141-0.26276-0.0355-0.36873-0.0613-0.10772-0.0254-0.19619-0.0542-0.26275-0.0856-0.0666-0.0309-0.11035-0.0633-0.12524-0.0952l-3.174-6.7314c-0.014-0.0303 0-0.0603 0.0368-0.0886 0.0351-0.0289 0.0946-0.0553 0.17517-0.0795 0.0806-0.0233 0.18217-0.0425 0.29953-0.0562 0.11999-0.0141 0.25662-0.0223 0.40638-0.0223l21.545 0.005z"/>
    <path id="path6163" style="stroke:#393939;stroke-width:.41326;fill:#ffffff" inkscape:connector-curvature="0" d="m430.5 558.06c0.1524 0 0.30216 0.01 0.44054 0.0237 0.13751 0.0152 0.26537 0.037 0.37573 0.0623 0.11123 0.0254 0.20494 0.0537 0.27851 0.0846 0.0718 0.0308 0.12262 0.0628 0.14539 0.0937l1.9986 2.6984c0.0228 0.0314 0.0202 0.0643-0.009 0.0952-0.028 0.0313-0.0815 0.0603-0.15678 0.086-0.0744 0.0254-0.1734 0.0466-0.29077 0.0612-0.11824 0.0152-0.25574 0.0237-0.41252 0.0237l-21.369-0.004c-0.15502-0.00052-0.30479-0.01-0.44316-0.0237-0.13751-0.0151-0.26451-0.0364-0.37574-0.0618-0.10773-0.0258-0.20056-0.0548-0.26975-0.0856-0.0692-0.0315-0.11824-0.0633-0.13575-0.0952l-1.6562-2.6973c-0.0183-0.0315-0.0114-0.0633 0.021-0.0937 0.0298-0.0303 0.085-0.0597 0.16203-0.0851 0.078-0.0254 0.17429-0.0466 0.29252-0.0613 0.11737-0.0151 0.25312-0.0238 0.40814-0.0238l21.02 0.0102z"/>
    <path id="path6177" style="stroke:#393939;stroke-width:.41326;fill:#ffffff" inkscape:connector-curvature="0" d="m455.37 558.06c0.15765 0 0.30917 0.01 0.45192 0.0237 0.14101 0.0152 0.27239 0.0364 0.38712 0.0623 0.11561 0.0254 0.21457 0.0543 0.29077 0.0846 0.078 0.0308 0.13313 0.0623 0.1594 0.0942l2.3717 2.6984c0.0272 0.0313 0.0272 0.0642 0.009 0.0952-0.0228 0.0308-0.0744 0.0597-0.14538 0.0856-0.0718 0.0254-0.16816 0.0466-0.28552 0.0612-0.11823 0.0152-0.25837 0.0237-0.41777 0.0237l-21.376-0.004c-0.15676 0-0.30917-0.009-0.44929-0.0237-0.14101-0.0152-0.27063-0.0364-0.38362-0.0618-0.11297-0.0258-0.2067-0.0548-0.28114-0.0856-0.0736-0.0309-0.12699-0.0633-0.14976-0.0952l-2.0258-2.6978c-0.0228-0.0315-0.0202-0.0633 0.009-0.0937 0.028-0.0309 0.0788-0.0597 0.15239-0.0851 0.071-0.0253 0.16817-0.0471 0.2829-0.0613 0.11561-0.0152 0.25136-0.0242 0.40375-0.0242h21.02z"/>
    <path id="path6191" style="stroke:#393939;stroke-width:.41326;fill:#ffffff" inkscape:connector-curvature="0" d="m480.24 558.07c0.15241 0 0.3048 0.01 0.44755 0.0242 0.14014 0.0152 0.27414 0.0364 0.3915 0.0618 0.11998 0.0254 0.22159 0.0547 0.30216 0.0846 0.0806 0.0308 0.14013 0.0628 0.17254 0.0942l2.7413 2.6999c0.0323 0.0314 0.0394 0.0638 0.0183 0.0952-0.0183 0.0308-0.0613 0.0603-0.1305 0.0856-0.0666 0.0254-0.1594 0.0466-0.27413 0.0618-0.11298 0.0147-0.24874 0.0233-0.40551 0.0233l-21.4-0.004c-0.15677 0-0.30916-0.009-0.45192-0.0242-0.14277-0.0146-0.27414-0.0359-0.3915-0.0612-0.11561-0.0254-0.2172-0.0547-0.29515-0.086-0.0762-0.0309-0.134-0.0633-0.16203-0.0952l-2.3971-2.6984c-0.0272-0.0308-0.0272-0.0628-0.009-0.0937 0.0228-0.0308 0.071-0.0597 0.14014-0.0851 0.0692-0.0258 0.16202-0.0471 0.27676-0.0612 0.11297-0.0152 0.24611-0.0242 0.40112-0.0242l20.932 0.005z"/>
    <path id="path6243" style="stroke:#393939;stroke-width:.41326;fill:#ffffff" inkscape:connector-curvature="0" d="m346.77 554.03c0.15239 0 0.29516 0.009 0.4239 0.0223 0.12875 0.0137 0.24436 0.0329 0.3442 0.0572 0.0963 0.0233 0.17429 0.0501 0.23297 0.0785 0.057 0.0289 0.092 0.0582 0.099 0.0886l1.9172 6.7289c0.009 0.0319-0.009 0.0648-0.0534 0.0952-0.0412 0.0309-0.10597 0.0597-0.19356 0.0851-0.0876 0.0254-0.19618 0.0471-0.32317 0.0623-0.12437 0.0141-0.26976 0.0233-0.42828 0.0233l-129.08-0.0207c-0.15589 0-0.2969-0.009-0.41863-0.0237-0.12262-0.0157-0.22684-0.036-0.31005-0.0612-0.0832-0.0258-0.14363-0.0547-0.18216-0.086-0.0368-0.0309-0.0508-0.0633-0.0368-0.0952l2.8745-6.7208c0.0132-0.0294 0.0525-0.0597 0.11298-0.0881 0.0596-0.0284 0.14276-0.0557 0.24172-0.079 0.10073-0.0234 0.21721-0.0435 0.34683-0.0562 0.12875-0.0141 0.27151-0.0223 0.4204-0.0223l124.01 0.0102z"/>
    <path id="path4524" sodipodi:rx="164.61024" sodipodi:ry="120.74007" style="fill:#515152;stroke:#484848;stroke-width:7.83339977;stroke-linecap:round;stroke-linejoin:round" sodipodi:type="arc" d="M 93.952072,315.11014 A 164.61024,120.74007 0 1 1 -235.26452,314.2788 l 164.606347,0.83134 z" transform="matrix(-0.50504,0,0,0.51629,264.6596,240.0559)" sodipodi:cy="315.11014" sodipodi:cx="-70.658173" sodipodi:end="3.1484781" sodipodi:start="0"/>
    <rect id="rect4526" style="stroke-linejoin:round;stroke:#484848;stroke-linecap:round;stroke-width:4;fill:#515152" rx="13.736" ry="14.093" height="62.85" width="22.854" y="323.48" x="167.55"/>
    <rect id="rect4526-7" style="stroke-linejoin:round;stroke:#484848;stroke-linecap:round;stroke-width:4;fill:#515152" rx="13.736" ry="14.093" height="62.85" width="22.854" y="324.68" x="403.75"/>
  </g>
  <metadata id="metadata100">
    <rdf:RDF>
      <cc:Work>
        <dc:format>image/svg+xml</dc:format>
        <dc:type rdf:resource="http://purl.org/dc/dcmitype/StillImage"/>
        <cc:license rdf:resource="http://creativecommons.org/licenses/publicdomain/"/>
        <dc:publisher>
          <cc:Agent rdf:about="http://openclipart.org/">
            <dc:title>Openclipart</dc:title>
          </cc:Agent>
        </dc:publisher>
        <dc:title/>
      </cc:Work>
      <cc:License rdf:about="http://creativecommons.org/licenses/publicdomain/">
        <cc:permits rdf:resource="http://creativecommons.org/ns#Reproduction"/>
        <cc:permits rdf:resource="http://creativecommons.org/ns#Distribution"/>
        <cc:permits rdf:resource="http://creativecommons.org/ns#DerivativeWorks"/>
      </cc:License>
    </rdf:RDF>
  </metadata>
</svg>
